<svg width="47" height="100" viewBox="0 0 47 51" fill="none" xmlns="http://www.w3.org/2000/svg">
<path d="M7.52289 9.31265C7.44554 7.06897 9.17627 5 11.5157 5H35.4873C37.8267 5 39.5574 7.06897 39.4801 9.31265C39.4058 11.4679 39.5023 14.2598 40.1979 16.5363C40.8958 18.8197 42.0726 20.2631 44 20.4485V22.5515C42.0726 22.7369 40.8958 24.1803 40.1979 26.4638C39.5023 28.7402 39.4058 31.5321 39.4801 33.6874C39.5574 35.931 37.8267 38 35.4873 38H11.5157C9.17627 38 7.44554 35.931 7.52297 33.6874C7.59721 31.5321 7.50071 28.7402 6.80499 26.4638C6.10719 24.1803 4.92748 22.7369 3 22.5515V20.4485C4.9274 20.2631 6.10719 18.8197 6.80499 16.5363C7.50071 14.2598 7.59721 11.4679 7.52289 9.31265Z" fill="url(#paint0_linear)"/>
<g filter="url(#filter0_d)">
<path d="M24.3891 30.2722C28.1766 30.2722 30.4589 28.3992 30.4589 25.3097C30.4589 22.9744 28.8304 21.2837 26.4124 21.0161V20.9188C28.1889 20.6269 29.583 18.9605 29.583 17.0996C29.583 14.448 27.5104 12.7208 24.3521 12.7208H17.246V30.2722H24.3891ZM20.0095 14.9466H23.6859C25.6845 14.9466 26.8195 15.8467 26.8195 17.4766C26.8195 19.2159 25.4995 20.189 23.1061 20.189H20.0095V14.9466ZM20.0095 28.0464V22.2689H23.6612C26.2766 22.2689 27.6337 23.2419 27.6337 25.1394C27.6337 27.0369 26.3137 28.0464 23.8216 28.0464H20.0095Z" fill="url(#paint1_linear)"/>
<path d="M24.3891 30.2722C28.1766 30.2722 30.4589 28.3992 30.4589 25.3097C30.4589 22.9744 28.8304 21.2837 26.4124 21.0161V20.9188C28.1889 20.6269 29.583 18.9605 29.583 17.0996C29.583 14.448 27.5104 12.7208 24.3521 12.7208H17.246V30.2722H24.3891ZM20.0095 14.9466H23.6859C25.6845 14.9466 26.8195 15.8467 26.8195 17.4766C26.8195 19.2159 25.4995 20.189 23.1061 20.189H20.0095V14.9466ZM20.0095 28.0464V22.2689H23.6612C26.2766 22.2689 27.6337 23.2419 27.6337 25.1394C27.6337 27.0369 26.3137 28.0464 23.8216 28.0464H20.0095Z" stroke="white"/>
</g>
<defs>
<filter id="filter0_d" x="0.745972" y="0.220764" width="46.2129" height="50.5515" filterUnits="userSpaceOnUse" color-interpolation-filters="sRGB">
<feFlood flood-opacity="0" result="BackgroundImageFix"/>
<feColorMatrix in="SourceAlpha" type="matrix" values="0 0 0 0 0 0 0 0 0 0 0 0 0 0 0 0 0 0 127 0" result="hardAlpha"/>
<feOffset dy="4"/>
<feGaussianBlur stdDeviation="8"/>
<feColorMatrix type="matrix" values="0 0 0 0 0 0 0 0 0 0 0 0 0 0 0 0 0 0 0.15 0"/>
<feBlend mode="normal" in2="BackgroundImageFix" result="effect1_dropShadow"/>
<feBlend mode="normal" in="SourceGraphic" in2="effect1_dropShadow" result="shape"/>
</filter>
<linearGradient id="paint0_linear" x1="9.09226" y1="5.87337" x2="45.1954" y2="34.2471" gradientUnits="userSpaceOnUse">
<stop stop-color="#9013FE"/>
<stop offset="1" stop-color="#6610F2"/>
</linearGradient>
<linearGradient id="paint1_linear" x1="18.4958" y1="13.876" x2="26.6232" y2="27.4846" gradientUnits="userSpaceOnUse">
<stop stop-color="white"/>
<stop offset="1" stop-color="#F1E5FC"/>
</linearGradient>
</defs>
</svg>
