<svg width="66" height="50" viewBox="0 0 66 99" fill="none" xmlns="http://www.w3.org/2000/svg">
<path d="M16.4967 98.9999C25.6029 98.9999 32.9934 91.608 32.9934 82.5V66H16.4967C7.39052 66 0 73.392 0 82.5C0 91.608 7.39052 98.9999 16.4967 98.9999Z" fill="#0ACF83"/>
<path d="M0 49.5C0 40.392 7.39052 33 16.4967 33H32.9934V65.9999H16.4967C7.39052 65.9999 0 58.608 0 49.5Z" fill="#A259FF"/>
<path d="M0.00100708 16.5C0.00100708 7.392 7.39153 0 16.4977 0H32.9944V33H16.4977C7.39153 33 0.00100708 25.608 0.00100708 16.5Z" fill="#F24E1E"/>
<path d="M32.9934 0H49.4901C58.5963 0 65.9869 7.392 65.9869 16.5C65.9869 25.608 58.5963 33 49.4901 33H32.9934V0Z" fill="#FF7262"/>
<path d="M65.9869 49.5C65.9869 58.608 58.5963 65.9999 49.4901 65.9999C40.3839 65.9999 32.9934 58.608 32.9934 49.5C32.9934 40.392 40.3839 33 49.4901 33C58.5963 33 65.9869 40.392 65.9869 49.5Z" fill="#1ABCFE"/>
</svg>
