<svg width="102" height="80" viewBox="0 0 117 118" fill="none" xmlns="http://www.w3.org/2000/svg">
<path d="M106.187 24.7338C106.185 24.6961 106.181 24.6584 106.174 24.6209C106.028 24.412 105.848 24.2322 105.698 24.0274C104.605 22.5393 103.449 21.1069 102.228 19.7302C101.894 19.354 101.559 18.982 101.217 18.6141C99.9599 17.2682 98.6417 15.9848 97.2623 14.7643C97.0073 14.5385 96.769 14.3046 96.514 14.0829C93.1144 11.1705 89.392 8.6571 85.4201 6.59237C85.2611 6.50885 85.0941 6.43782 84.931 6.35406C83.1621 5.45518 81.3484 4.64717 79.4968 3.9337C79.0787 3.78331 78.6983 3.64101 78.3013 3.51561C76.6544 2.92215 74.9823 2.40242 73.2852 1.95641C72.7836 1.82268 72.282 1.68479 71.7721 1.56771C70.0999 1.17901 68.4281 0.882163 66.7182 0.639686C66.2 0.564494 65.69 0.464074 65.1674 0.401373C60.7639 -0.133791 56.3118 -0.133791 51.9081 0.401373C51.3856 0.464074 50.8757 0.564494 50.3572 0.639686C48.6476 0.882163 46.9588 1.17901 45.3034 1.56771C44.7934 1.68479 44.2918 1.82268 43.7902 1.95641C42.0819 2.40217 40.41 2.92191 38.7741 3.51561C38.356 3.65767 37.9757 3.79997 37.5787 3.9337C35.7273 4.64717 33.9133 5.45493 32.1445 6.35406C31.9814 6.43758 31.8143 6.50861 31.6554 6.59237C27.6702 8.65489 23.9353 11.1681 20.5237 14.0829C20.2687 14.3044 20.0304 14.5385 19.7755 14.7643C18.3821 15.9904 17.0639 17.2738 15.8211 18.6141C15.4785 18.982 15.1439 19.354 14.8096 19.7302C13.5862 21.104 12.4296 22.5363 11.3402 24.0272C11.1898 24.232 11.01 24.4117 10.8636 24.6207C10.8445 24.6571 10.8276 24.6949 10.8134 24.7336C-3.60446 44.9392 -3.60446 72.0697 10.8134 92.2751C10.8276 92.3138 10.8442 92.3516 10.8636 92.3881C11.0098 92.597 11.1896 92.7767 11.3402 92.9815C12.4299 94.4697 13.5862 95.902 14.8096 97.2787C15.1439 97.6549 15.4785 98.027 15.8211 98.3949C17.0808 99.7407 18.3987 101.024 19.7755 102.245C20.0304 102.47 20.2687 102.704 20.5237 102.926C23.9233 105.838 27.6457 108.352 31.6176 110.417C31.7766 110.5 31.9436 110.571 32.1068 110.655C33.8756 111.554 35.6893 112.362 37.5409 113.075C37.959 113.226 38.3394 113.368 38.7364 113.493C40.3833 114.087 42.0554 114.607 43.7525 115.053C44.2541 115.186 44.7557 115.324 45.2657 115.441C46.9378 115.83 48.6096 116.127 50.3195 116.369C50.8377 116.444 51.3477 116.545 51.8703 116.608C56.2739 117.143 60.7259 117.143 65.1297 116.608C65.6521 116.545 66.162 116.444 66.6805 116.369C68.3901 116.127 70.0789 115.83 71.7343 115.441C72.2443 115.324 72.7459 115.186 73.2475 115.053C74.9585 114.607 76.6307 114.087 78.2636 113.493C78.6817 113.351 79.062 113.209 79.4591 113.075C81.3105 112.362 83.1244 111.554 84.8932 110.655C85.0564 110.571 85.2234 110.5 85.3824 110.417C89.3543 108.352 93.0767 105.838 96.4763 102.926C96.7313 102.704 96.9696 102.47 97.2245 102.245C98.6179 101.021 99.9361 99.738 101.179 98.3949C101.522 98.027 101.856 97.6549 102.19 97.2787C103.414 95.902 104.57 94.4697 105.66 92.9815C105.81 92.7767 105.99 92.597 106.136 92.3881C106.156 92.3516 106.172 92.3138 106.187 92.2751C120.604 72.07 120.604 44.9395 106.187 24.7338ZM101.417 32.6427C105.415 39.2266 107.829 46.6488 108.469 54.3248H83.4303C83.1236 49.344 82.3399 44.4043 81.0895 39.5734C88.1623 38.2488 95.0082 35.9147 101.417 32.6427ZM69.1553 9.49744C69.3894 9.55182 69.615 9.62701 69.8491 9.68138C71.3456 10.0326 72.8296 10.4338 74.2801 10.9354C74.5018 11.0106 74.719 11.0985 74.9365 11.1779C76.3745 11.6795 77.7914 12.2355 79.1794 12.85C79.4218 12.9629 79.6601 13.0883 79.9026 13.2012C81.2318 13.8339 82.5304 14.5179 83.7984 15.2537L84.6343 15.7595C85.8382 16.4952 87.0087 17.2824 88.1456 18.1213C88.4383 18.3344 88.7307 18.5394 89.0193 18.7733C90.1339 19.6092 91.2013 20.5052 92.2212 21.4611C92.4886 21.7036 92.7647 21.9419 93.028 22.1927C94.0981 23.2084 95.1179 24.2827 96.1045 25.3946C96.2299 25.5408 96.3636 25.6746 96.489 25.8127C90.829 28.5101 84.833 30.4362 78.6611 31.5393C75.8018 23.6792 72.0248 16.1839 67.4084 9.20941C67.9889 9.31375 68.5826 9.37228 69.1553 9.49744ZM41.9513 54.3246C42.281 49.8018 43.051 45.3218 44.2504 40.9484C48.9866 41.511 53.7519 41.79 58.5213 41.7843C63.2952 41.7829 68.0649 41.4968 72.8047 40.9273C74.0019 45.3079 74.7677 49.7949 75.091 54.3246H41.9513ZM75.091 62.6849C74.7614 67.2077 73.9913 71.6876 72.7919 76.061C68.0558 75.4984 63.2905 75.2195 58.5211 75.2251C53.7475 75.2197 48.978 75.4987 44.2377 76.061C43.0417 71.6874 42.2761 67.2074 41.9511 62.6849H75.091ZM58.5211 11.0694C63.278 17.8115 67.1905 25.1115 70.171 32.8058C66.3014 33.2168 62.4127 33.4233 58.5211 33.4245C54.6338 33.4199 50.7493 33.2122 46.8836 32.8017C49.8678 25.1125 53.7756 17.8149 58.5211 11.0694ZM20.9423 25.3902C21.9247 24.2782 22.9487 23.204 24.0188 22.1883C24.2821 21.9375 24.5581 21.6992 24.8256 21.4567C25.8567 20.5176 26.9241 19.6217 28.0275 18.7689C28.316 18.5472 28.6085 18.3508 28.9012 18.1169C30.0381 17.281 31.2086 16.4935 32.4124 15.7551L33.2484 15.2493C34.5163 14.5081 35.8149 13.8238 37.1442 13.1968C37.3866 13.0839 37.6249 12.9585 37.8674 12.8456C39.2552 12.2186 40.6723 11.6626 42.1103 11.1735C42.3275 11.0941 42.5284 11.0062 42.7664 10.931C44.2169 10.446 45.6926 10.0449 47.1974 9.67697C47.4315 9.6226 47.6571 9.54741 47.8954 9.4972C48.4681 9.37179 49.0618 9.31326 49.6427 9.20867C45.0244 16.1844 41.2462 23.6811 38.3857 31.5428C32.2138 30.4396 26.2175 28.5135 20.5578 25.8161C20.6832 25.6702 20.8169 25.5364 20.9423 25.3902ZM15.6252 32.6427C22.0327 35.9144 28.8772 38.2486 35.9487 39.5734C34.6998 44.4046 33.9173 49.3442 33.6121 54.3248H8.57352C9.21375 46.6488 11.6277 39.2266 15.6252 32.6427ZM15.6252 84.367C11.6275 77.7831 9.21351 70.3609 8.57352 62.6849H33.6121C33.9187 67.6657 34.7025 72.6054 35.9528 77.4363C28.8801 78.7606 22.0342 81.0947 15.6252 84.367ZM47.8871 107.512C47.653 107.458 47.4274 107.382 47.1932 107.328C45.6967 106.977 44.2127 106.576 42.7623 106.074C42.5406 105.999 42.3234 105.911 42.1059 105.832C40.6679 105.33 39.251 104.774 37.863 104.159C37.6205 104.047 37.3822 103.921 37.1397 103.808C35.8105 103.176 34.5119 102.492 33.2439 101.756L32.408 101.25C31.2042 100.514 30.0337 99.727 28.8968 98.8881C28.6041 98.6751 28.3116 98.4701 28.0231 98.2362C26.9084 97.4002 25.8411 96.5043 24.8212 95.5483C24.5537 95.3059 24.2777 95.0676 24.0144 94.8167C22.9443 93.801 21.9244 92.7268 20.9379 91.6148C20.8125 91.4686 20.6787 91.3349 20.5533 91.1967C26.2133 88.4994 32.2094 86.5733 38.3813 85.4701C41.2405 93.3303 45.0175 100.826 49.6339 107.8C49.0532 107.696 48.4597 107.637 47.8871 107.512ZM58.5211 105.94C53.7641 99.1982 49.8517 91.8982 46.8712 84.2038C54.6125 83.3706 62.421 83.3706 70.1624 84.2038L70.1582 84.208C67.1746 91.897 63.2668 99.1945 58.5211 105.94ZM96.1001 91.6192C95.1177 92.7312 94.0936 93.8054 93.0236 94.8212C92.7603 95.072 92.4842 95.3103 92.2168 95.5527C91.1856 96.4947 90.1182 97.3907 89.0149 98.2406C88.7263 98.462 88.4339 98.6795 88.1412 98.8926C87.0043 99.7285 85.8338 100.516 84.6299 101.254L83.794 101.76C82.5287 102.499 81.2301 103.183 79.8982 103.813C79.6557 103.926 79.4174 104.051 79.1749 104.164C77.7872 104.791 76.3701 105.347 74.9321 105.836C74.7148 105.915 74.514 106.003 74.2759 106.078C72.8255 106.563 71.3498 106.965 69.845 107.332C69.6108 107.387 69.3853 107.462 69.1469 107.512C68.5743 107.638 67.9806 107.696 67.3996 107.801C72.016 100.826 75.7933 93.331 78.6523 85.4708C84.8242 86.574 90.8205 88.5001 96.4802 91.1975C96.3592 91.3393 96.2255 91.473 96.1001 91.6192ZM101.417 84.367C95.0097 81.0952 88.1652 78.7611 81.0937 77.4363C82.3426 72.6051 83.1251 67.6655 83.4303 62.6849H108.469C107.829 70.3606 105.415 77.7829 101.417 84.367Z" fill="#FFC139"/>
</svg>
