<svg width="27" height="100" viewBox="0 0 27 40" fill="none" xmlns="http://www.w3.org/2000/svg">
<path d="M26.9838 38.3313C26.9838 39.234 20.9446 39.9658 13.4948 39.9658C6.04494 39.9659 0.00579834 39.234 0.00579834 38.3314C0.00579834 37.4286 7.09014 36.6969 13.4948 36.6969C21.1187 36.6969 26.9838 37.4286 26.9838 38.3314" fill="#1A4658"/>
<path d="M26.1489 26.5371C25.7313 26.5371 25.2817 26.3447 24.9604 24.8705C24.6392 23.3961 24.1575 21.8898 24.1575 21.8898C24.6715 21.8898 24.9604 21.6654 24.9604 21.6654C24.6071 21.505 23.8362 20.9602 23.3225 20.2872C22.8087 19.6142 21.4918 18.5243 21.4918 18.5243V16.3451C21.4918 14.8707 22.4393 13.717 22.4393 13.717C21.797 13.717 21.4918 14.2938 21.4918 14.2938V11.185C21.4918 8.10813 23.0493 6.73009 23.0493 6.73009C22.5677 6.6981 22.2465 6.92239 22.2465 6.92239C22.4714 4.64688 23.1699 3.97381 23.1699 3.97381C20.6007 3.30073 19.1674 4.80718 19.1674 4.80718C18.8784 3.42903 20.0085 2.62745 20.0085 2.62745C18.6918 2.33906 17.6027 2.72365 17.6027 2.72365C17.6027 0.704531 18.407 0.0310364 18.407 0.0310364C14.3925 0.0310364 12.1131 3.04329 12.1131 3.04329C11.9526 1.76135 12.3061 0.638434 12.3061 0.638434C8.42009 2.27297 7.39261 5.89283 7.39261 5.89283C7.13569 5.28396 7.10363 3.9015 7.10363 3.9015C7.10363 3.9015 5.49765 6.5859 5.20867 8.44462C4.91969 10.3035 5.46559 15.6399 5.46559 15.6399C5.46559 15.6399 5.20878 15.3195 4.66276 15.2555C4.66276 15.2555 5.24073 15.8964 5.24073 17.3387C5.24073 17.3387 5.01598 17.1464 4.6306 17.2426C4.6306 17.2426 5.24073 17.7873 5.30507 18.7168C5.30507 18.7168 4.59843 19.1976 4.21305 19.6783C4.21305 19.6783 3.6028 19.7104 3.28165 19.8065C3.28165 19.8065 3.7956 20.0948 3.89189 20.3513C3.89189 20.3513 2.38242 21.8898 1.61166 23.1396C1.61166 23.1396 2.28613 22.723 2.76781 22.8512C2.76781 22.8512 1.70785 24.1332 1.35463 26.2485C1.35463 26.2485 1.86847 25.9922 2.09333 26.1204C2.09333 26.1204 1.45103 27.4665 1.41886 28.8766L0.712326 29.2934L1.25834 29.678C1.25834 29.678 0.840787 31.4086 0.744389 32.4022C0.744389 32.4022 1.06554 32.0817 1.32246 31.9856C1.32246 31.9856 1.67578 32.8187 2.15756 33.4598C2.63935 34.1008 3.73137 34.6457 4.37367 34.6457L5.58098 34.5987C5.43121 35.2435 5.1359 35.7901 4.51321 35.8189L4.44413 35.9294C4.43135 35.9285 4.41855 35.9279 4.40574 35.9277C4.3934 36.1159 4.01265 36.1498 3.90792 36.2803C3.58962 36.6766 3.34694 37.221 3.18525 37.7064C3.06681 38.0622 3.12281 38.0622 3.04076 38.4276C3.01387 38.5472 2.88952 38.6749 2.84807 38.7961C3.19485 38.6799 4.15588 38.6022 4.66213 38.5652L4.67067 39.0123C4.67067 39.0123 4.75421 39.0897 4.89237 39.1459C4.89722 39.1449 4.90186 39.1436 4.90756 39.1442C4.95449 39.1479 4.99984 39.1548 5.04424 39.1658C5.80383 39.0979 6.33276 39.2258 7.21332 39.1529C7.3846 39.1326 7.54523 39.1086 7.6952 39.0234C7.73781 38.8962 7.74361 38.8884 7.76365 38.7242C7.76787 38.6949 7.76787 38.6648 7.77504 38.6292C7.78875 38.6269 7.80225 38.625 7.81565 38.6228C7.82584 38.6198 7.83644 38.6184 7.84708 38.6186C7.85087 38.6174 7.85404 38.6157 7.85826 38.6153L7.90002 38.6117C7.90855 38.6081 7.918 38.6073 7.92702 38.6094C8.08649 38.5952 8.34225 38.5818 8.50162 38.5731C9.01947 38.5722 9.70101 38.6318 9.70101 38.6318C9.7432 38.0524 9.78528 37.1536 10.7247 34.5334L10.9576 34.3892C10.9576 34.3892 13.8429 35.4038 16.5201 34.3482C16.732 34.8686 17.4174 36.6176 17.5252 37.7202C17.6174 37.8495 17.6072 38.0135 17.6102 38.1872C17.6129 38.3343 17.6253 38.4814 17.6292 38.628C17.7255 38.6149 18.0732 38.5724 18.512 38.5731C18.6712 38.5818 18.9271 38.5952 19.0866 38.6094C19.0956 38.6073 19.105 38.6081 19.1136 38.6117L19.1553 38.6153C19.1596 38.6157 19.1627 38.6174 19.1665 38.6185C19.1772 38.6184 19.1878 38.6199 19.1979 38.623C19.2113 38.6249 19.2247 38.6269 19.2385 38.6293C19.2456 38.6648 19.2456 38.6949 19.25 38.7242C19.2701 38.8884 19.2758 38.8962 19.3184 39.0233C19.3321 39.0311 19.346 39.038 19.3599 39.0448C19.8394 38.9841 20.3252 38.973 20.8075 38.9958C21.187 39.0136 21.5599 39.0848 21.9333 39.1526C21.9333 39.156 21.9337 39.1597 21.9337 39.1633C21.9713 39.1673 22.0081 39.1699 22.0449 39.1724C22.2453 39.2081 22.4461 39.2414 22.6482 39.2632C22.6521 39.0108 22.6508 38.7901 22.6454 38.5962C23.0477 38.6155 23.63 38.6954 23.8741 38.7309C23.9711 38.7541 24.0497 38.7683 24.1323 38.7861C24.1435 38.7894 24.1553 38.7927 24.1655 38.7961L24.1643 38.7933C24.2472 38.8118 24.3366 38.8353 24.4546 38.8763C24.4367 38.6595 24.4383 38.6639 24.4095 38.3921C24.3873 38.1819 24.2363 37.5432 23.9536 37.2796C23.9536 37.2796 24.2616 37.4126 24.3556 37.4654C24.052 37.0549 23.9045 36.4683 22.9507 36.0637C22.9507 36.0637 23.1249 35.9816 23.2841 35.961C23.1177 35.8587 22.9906 35.8185 22.8222 35.8306C22.8793 35.6684 23.1312 35.2591 23.3425 35.2065C23.3425 35.2065 23.2128 35.1166 23.0008 35.1862C22.9212 35.227 22.8444 35.2731 22.7709 35.324C22.7429 35.3438 22.7018 35.3233 22.6935 35.2925C22.6268 35.0465 22.5835 34.7965 22.5441 34.5454C24.4661 34.4759 24.7357 33.4919 24.7357 33.4919C24.8962 33.6202 24.8962 33.9086 24.8962 33.9086C25.7311 32.8188 25.6348 31.7291 25.6348 31.7291C25.8276 31.7611 25.9881 31.8894 25.9881 31.8894C26.0845 30.2227 25.5707 27.3703 25.5707 27.3703C25.8276 27.4984 25.9881 27.3383 25.9881 27.3383C25.6991 27.2102 25.6671 26.8896 25.6671 26.8896C26.0846 26.9216 26.1489 26.537 26.1489 26.537" fill="#EDF7FA"/>
<path d="M7.77505 38.6292C7.77505 38.6292 7.85036 37.8186 7.58542 37.2336C7.58542 37.2336 8.08713 37.2676 8.1714 38.5898C8.1714 38.5898 7.82009 38.6305 7.77505 38.6291V38.6292ZM5.25677 35.8956L5.25994 35.8707C5.26173 35.883 5.26152 35.8925 5.25677 35.8956ZM5.72653 38.5663L5.722 38.5651L5.7279 38.5499L5.72653 38.5663Z" fill="#CDE9EE"/>
<path d="M12.1132 3.0434C11.9527 1.76135 12.3062 0.638434 12.3062 0.638434C8.42009 2.27297 7.39261 5.89283 7.39261 5.89283C7.13569 5.28396 7.10363 3.9015 7.10363 3.9015C7.10363 3.9015 5.49765 6.5859 5.20867 8.44461C4.91969 10.3035 5.46559 15.6399 5.46559 15.6399C5.46559 15.6399 5.20878 15.3195 4.66276 15.2554C4.66276 15.2554 5.24073 15.8964 5.24073 17.3387C5.24073 17.3387 5.01598 17.1464 4.6306 17.2426C4.6306 17.2426 5.24073 17.7873 5.30507 18.7168C5.30507 18.7168 4.59843 19.1976 4.21304 19.6783C4.21304 19.6783 3.6028 19.7104 3.28165 19.8065C3.28165 19.8065 3.7956 20.0948 3.89189 20.3513C3.89189 20.3513 2.38242 21.8898 1.61166 23.1396C1.61166 23.1396 2.28613 22.723 2.76781 22.8512C2.76781 22.8512 1.70785 24.1332 1.35463 26.2485C1.35463 26.2485 1.86847 25.9922 2.09333 26.1204C2.09333 26.1204 1.45103 27.4664 1.41886 28.8766L0.712326 29.2934L1.25834 29.678C1.25834 29.678 0.840787 31.4086 0.744389 32.4021C0.744389 32.4021 1.06554 32.0817 1.32246 31.9856C1.32246 31.9856 1.67578 32.8187 2.15756 33.4598C2.63935 34.1008 3.73137 34.6457 4.37367 34.6457L4.45499 34.6346C4.41913 34.8555 4.37884 35.0756 4.31999 35.2925C4.31176 35.3232 4.27074 35.3438 4.24258 35.324C4.16915 35.273 4.09241 35.2269 4.01287 35.1861C3.80087 35.1166 3.67104 35.2065 3.67104 35.2065C3.8824 35.2592 4.13426 35.6684 4.19153 35.8307C4.02299 35.8185 3.8959 35.8587 3.72947 35.961C3.88873 35.9817 4.06286 36.0637 4.06286 36.0637C3.10921 36.4683 2.96155 37.055 2.65801 37.4654C2.75199 37.4126 3.05985 37.2797 3.05985 37.2797C2.7773 37.5432 2.62637 38.1818 2.60412 38.3921C2.57543 38.6639 2.57701 38.6595 2.55908 38.8763C2.81189 38.7885 2.93476 38.7799 3.13937 38.7309C3.45567 38.6849 4.3394 38.564 4.66403 38.5977L4.61288 39.2208L4.6288 39.2206C4.79544 39.1729 4.93129 39.1792 5.07989 39.1633C5.08211 38.9915 5.09118 38.82 5.10521 38.6488C5.09529 38.3565 5.13168 38.0902 5.19158 37.7934C5.19348 37.7834 5.19601 37.773 5.19802 37.7631C5.31593 37.3578 5.52107 37.1271 5.65428 36.9853C5.69847 36.9381 5.73686 36.8823 5.76976 36.8251C5.86515 36.6979 5.94127 36.5575 5.99568 36.4083C6.12772 36.0488 6.07109 35.2589 5.80583 34.488C6.08554 34.8896 6.34046 35.2421 6.46122 35.3626L6.4532 34.3813C6.4532 34.3813 6.96704 34.8936 7.42699 35.2808C7.64848 35.4738 7.92154 35.7247 8.11539 35.8247C8.12942 35.8335 8.14207 35.7403 8.15758 35.881H8.15737C8.15937 35.881 8.16127 35.8531 8.16327 35.8542C8.42378 36 8.69167 36.1159 8.94248 36.2779C8.96937 36.2951 8.99679 36.3036 9.02316 36.3217C9.13917 36.4014 9.34357 36.4901 9.5273 36.5867L9.70101 38.6337C9.85752 36.4824 11.086 34.4222 11.086 34.4222L11.041 34.4085C10.6609 34.2912 7.87967 33.331 6.23646 29.9024C6.12825 29.6766 6.8466 30.1586 6.8466 30.1586C6.17213 28.5241 5.91521 25.896 5.91521 25.896C6.13996 26.0883 6.36482 26.1203 6.36482 26.1203C5.88314 24.7742 5.69045 23.1076 5.69045 21.6012C5.56199 13.4926 8.5649 11.6337 8.5649 11.6337C8.05105 11.4414 7.50504 11.4574 7.50504 11.4574C8.09925 10.0313 10.0743 8.04414 10.0743 8.04414C9.54438 8.07624 7.47287 8.63701 7.47287 8.63701C9.19117 4.16599 10.9255 2.98025 10.9255 2.98025C10.797 4.0538 11.2145 5.19165 11.2145 5.19165C14.9401 0.59244 17.9334 0.806939 17.9334 0.806939C18.1554 0.345629 18.4075 0.0310364 18.4075 0.0310364C14.3928 0.0310364 12.1131 3.04329 12.1131 3.04329L12.1132 3.0434ZM22.6439 38.6038C22.6439 38.6038 22.6077 37.4419 22.3429 36.8571C22.3429 36.8571 23.0334 37.2817 23.0295 38.6238C23.0295 38.6238 22.6891 38.6052 22.6439 38.6038Z" fill="#CDE9EE"/>
<path d="M4.67817 32.6282C5.13306 28.1827 5.25677 19.4858 5.25677 19.4858C4.26927 21.433 3.47435 24.9664 3.47435 24.9664L3.66704 25.7356L3.23357 25.5434C2.53663 27.9568 3.00818 31.1874 3.16427 32.0975C3.60756 32.4478 4.13564 32.5659 4.67817 32.6282ZM3.74657 32.5321C3.88591 33.2355 4.03604 33.9367 4.19692 34.6355C4.31747 34.6536 4.453 34.6445 4.453 34.6445C4.56353 34.2147 4.58177 33.5495 4.66773 32.7311C4.35111 32.6942 4.0404 32.638 3.74657 32.5321Z" fill="#ABD8D7"/>
<path d="M18.8402 36.3629C18.8298 36.3664 18.8184 36.3661 18.8081 36.3622C18.7979 36.3582 18.7893 36.3507 18.784 36.3411C18.7341 36.3509 18.6958 36.3599 18.6701 36.3666L18.6702 36.3664C19.3327 35.8853 19.3937 35.3764 19.3937 35.3764C18.9541 35.5741 18.4875 35.6479 18.2605 35.674C19.7921 34.3492 20.0466 31.8893 20.0466 31.8893C19.4192 32.6578 18.5291 33.3072 17.8411 33.743L17.8426 33.7401C17.8426 33.7401 17.3817 33.9973 16.9556 34.1976C16.9456 34.1957 16.9353 34.197 16.926 34.2013C16.9168 34.2056 16.9092 34.2126 16.9042 34.2215C16.6854 34.3227 16.4813 34.4052 16.3612 34.4252C16.3612 34.4252 16.7159 35.0788 16.864 35.4313L16.8349 35.4548C16.8349 35.4548 17.3481 36.6652 17.5349 37.8377C17.5546 38.0358 17.5698 38.2094 17.5805 38.342C17.5894 38.5136 17.6016 38.6318 17.6016 38.6318C18.2802 38.5316 19.2386 38.6291 19.2386 38.6291C19.234 38.7394 19.2947 39.0042 19.3058 39.0522C19.6281 39.0089 19.9531 38.9899 20.2783 38.9872C20.2741 37.8507 20.224 35.9624 18.8402 36.3629Z" fill="#CDE9EE"/>
<path d="M4.64263 32.971C3.57856 32.7915 2.61299 31.5712 2.61299 31.5712C3.38882 32.3944 4.3546 32.5047 4.3546 32.5047C4.48211 31.5645 3.70333 29.4126 3.70333 29.4126C4.28014 30.1294 4.59559 30.9583 4.76803 31.6369L4.64253 32.971" fill="#83BAC0"/>
<path d="M7.05734 31.3064C7.05734 31.3064 7.89445 32.7786 8.62904 33.4156C9.42195 34.1031 10.1587 35.0743 10.4718 35.6631C10.4718 35.6631 10.8692 34.7419 11.086 34.4212C11.086 34.4212 8.73746 33.7342 7.05734 31.3064ZM17.9827 34.1779C18.0992 34.0145 18.2325 33.8626 18.3595 33.7075C18.5678 33.453 18.8058 33.2059 18.9807 32.9289C18.6788 33.1544 18.3427 33.3496 17.9991 33.556C17.0018 34.2303 16.3071 34.4212 16.3071 34.4212C16.5238 34.7419 16.9212 35.6631 16.9212 35.6631C17.1107 35.3067 17.4559 34.8103 17.8743 34.3214C17.9094 34.2728 17.9486 34.2261 17.9827 34.1779Z" fill="#ABD8D7"/>
<path d="M6.73987 9.38132C6.64853 9.38784 6.35628 9.39521 6.35628 9.39521C3.70827 9.57971 1.76195 7.53207 1.76195 7.53207C1.76195 7.53207 1.58793 9.13051 2.73817 10.5312C3.88884 11.9318 6.22043 12.1715 6.22043 12.1715C6.29616 12.499 6.13205 13.2295 6.13205 13.2295C6.13205 13.2295 6.81391 12.4769 6.98698 11.0509C7.10859 10.0517 6.7964 9.37732 6.73987 9.38132Z" fill="#545352"/>
<path d="M6.73988 9.38132C6.65202 9.38626 6.35629 9.39521 6.35629 9.39521C3.70828 9.57971 1.76196 7.53207 1.76196 7.53207C1.76196 7.53207 2.97169 11.0257 7.01167 10.7496C7.01167 10.7496 7.12336 10.1033 6.73988 9.38132Z" fill="#6E7979"/>
<path d="M19.9607 9.38132C20.0519 9.38784 20.3442 9.39521 20.3442 9.39521C22.9922 9.57971 24.9385 7.53207 24.9385 7.53207C24.9385 7.53207 25.1125 9.13051 23.9623 10.5312C22.8116 11.9318 20.48 12.1715 20.48 12.1715C20.4043 12.499 20.5684 13.2295 20.5684 13.2295C20.5684 13.2295 19.8866 12.4769 19.7135 11.0509C19.5919 10.0517 19.9042 9.37732 19.9607 9.38132Z" fill="#545352"/>
<path d="M19.9607 9.38132C20.0485 9.38626 20.3442 9.39521 20.3442 9.39521C22.9922 9.57971 24.9385 7.53207 24.9385 7.53207C24.9385 7.53207 23.7288 11.0257 19.6888 10.7496C19.6888 10.7496 19.5771 10.1033 19.9607 9.38132Z" fill="#6E7979"/>
<path d="M5.3577 21.2166C5.3577 21.2166 3.45431 28.0432 5.3577 32.4181V21.2166ZM24.3101 32.0152C23.3706 32.7306 22.3932 32.7759 22.3932 32.7759C22.3497 31.8413 23.3735 29.798 23.3735 29.798C23.1558 29.9261 22.9616 30.0903 22.7992 30.2835L22.7925 29.5977L23.5311 28.9889L22.9371 28.5081L23.6918 25.4793L22.9692 25.9601C22.9692 25.9601 22.7444 21.6495 22.9049 19.7906C22.9049 19.7906 21.9896 18.877 21.5401 18.5085C21.5401 18.5085 21.625 19.8357 21.7219 21.9563C22.1322 23.6574 22.7692 27.1778 21.9766 30.2741C21.9858 30.9017 21.9926 31.539 21.9962 32.1825C21.9962 32.1825 22.3912 33.5518 22.5196 34.5132C22.5196 34.5132 22.648 34.5493 22.8407 34.5173L22.8262 33.0449C23.8185 32.7458 24.3101 32.0152 24.3101 32.0152ZM15.4056 18.7965C15.4056 19.5246 15.8728 20.1148 16.4494 20.1148C17.0259 20.1148 17.4934 19.5246 17.4934 18.7965C17.4934 18.0681 17.0259 17.478 16.4494 17.478C15.8728 17.478 15.4056 18.0682 15.4056 18.7965Z" fill="#CDE9EE"/>
<path d="M15.4378 18.4443C15.4378 19.1611 15.8978 19.7423 16.4656 19.7423C17.0332 19.7423 17.4934 19.1611 17.4934 18.4443C17.4934 17.7273 17.0332 17.1462 16.4656 17.1462C15.8978 17.1462 15.4378 17.7273 15.4378 18.4443Z" fill="white"/>
<path d="M16.1926 17.775C16.1838 17.8078 16.1792 17.8415 16.1789 17.8754C16.1789 18.0583 16.2983 18.2062 16.4454 18.2062C16.5763 18.2062 16.6846 18.0892 16.7072 17.9349C16.7912 18.0448 16.8429 18.1928 16.8429 18.3561C16.8429 18.6947 16.6219 18.9691 16.3491 18.9691C16.0765 18.9691 15.8553 18.6947 15.8553 18.3561C15.8553 18.0856 15.9967 17.8564 16.1926 17.7751" fill="#474746"/>
<path d="M10.3953 18.7965C10.3953 19.5246 10.8626 20.1148 11.4392 20.1148C12.0157 20.1148 12.4831 19.5246 12.4831 18.7965C12.4831 18.0681 12.0157 17.478 11.4392 17.478C10.8626 17.478 10.3953 18.0682 10.3953 18.7965Z" fill="#CDE9EE"/>
<path d="M10.4276 18.4443C10.4276 19.1611 10.8876 19.7423 11.4554 19.7423C12.023 19.7423 12.4831 19.1611 12.4831 18.4443C12.4831 17.7273 12.023 17.1462 11.4554 17.1462C10.8876 17.1462 10.4276 17.7273 10.4276 18.4443Z" fill="white"/>
<path d="M11.3752 17.775C11.3664 17.8078 11.3617 17.8415 11.3614 17.8754C11.3614 18.0583 11.4807 18.2062 11.6279 18.2062C11.7587 18.2062 11.8671 18.0892 11.8897 17.9349C11.9736 18.0448 12.0254 18.1928 12.0254 18.3561C12.0254 18.6947 11.8043 18.9691 11.5316 18.9691C11.2589 18.9691 11.0378 18.6947 11.0378 18.3561C11.0378 18.0856 11.1792 17.8564 11.3752 17.7751" fill="#474746"/>
<path d="M19.1666 19.8309C19.1011 20.0277 18.8787 20.0799 18.245 20.2021L18.2018 20.2105C17.581 20.3294 16.4711 20.3139 15.863 20.2252C15.8378 20.2217 15.8126 20.2178 15.7874 20.2137C15.2239 20.1185 15.1598 20.0457 14.9785 19.7542C14.7914 19.4526 14.6763 18.5668 14.6551 18.3922L14.654 18.3834C14.6316 18.1987 14.6204 18.1063 14.858 18.0002C15.1776 17.8571 16.5964 17.6573 17.1776 17.6312C17.6366 17.611 18.6094 17.6748 19.0542 17.7397C19.124 17.75 19.1756 17.7593 19.2076 17.7678C19.2588 17.7813 19.4472 17.8728 19.4376 18.0727C19.4251 18.3362 19.2551 19.565 19.1665 19.8309H19.1666ZM12.9793 18.3834L12.9783 18.3922C12.9571 18.5669 12.842 19.4526 12.6548 19.7541C12.4736 20.0457 12.4095 20.1185 11.8458 20.2135C11.8219 20.2177 11.7966 20.2214 11.7702 20.2251C11.1624 20.3139 10.0523 20.3293 9.43145 20.2104L9.38831 20.2021C8.75465 20.0799 8.53222 20.0276 8.46672 19.8309C8.37813 19.565 8.20822 18.3363 8.19567 18.0727C8.18618 17.8727 8.37454 17.7813 8.4258 17.7678C8.45765 17.7593 8.50933 17.7499 8.57905 17.7397C9.02391 17.6748 9.99665 17.611 10.4557 17.6312C11.037 17.6573 12.4557 17.8571 12.7752 18.0001C13.013 18.1063 13.0018 18.1987 12.9793 18.3834ZM19.9803 17.2134C19.5149 17.1455 18.7025 17.0686 17.7273 17.1181C16.4583 17.1834 15.371 17.3592 14.7214 17.4641C14.5276 17.4955 14.3752 17.5202 14.259 17.5357L14.1322 17.5527C13.9897 17.5723 13.8963 17.5847 13.8166 17.5886C13.7371 17.5847 13.6437 17.5723 13.5013 17.5528L13.3743 17.5356C13.2582 17.5202 13.1058 17.4956 12.9118 17.4641C12.2623 17.3592 11.1751 17.1833 9.90595 17.1181C8.93089 17.0686 8.11846 17.1455 7.65303 17.2134C7.65303 17.2134 7.15627 17.2766 6.73145 17.4558L6.81245 17.9947C6.81245 17.9947 7.26132 17.8879 7.69975 17.8295C7.78118 18.5894 7.9398 19.5656 7.9398 19.5656L7.94233 19.5959C7.95436 19.6452 7.96553 19.693 7.97766 19.7451C8.06805 20.1289 8.1577 20.3547 8.51851 20.49C8.87288 20.6235 9.71115 20.7472 10.5567 20.7906C10.8711 20.8068 11.228 20.7875 11.5889 20.7351C12.1242 20.6572 12.6084 20.5133 12.7934 20.3768C13.0625 20.1783 13.2065 19.6788 13.3017 19.3482L13.3303 19.2508C13.3641 19.1381 13.3933 19.0198 13.4215 18.905C13.4622 18.7402 13.5041 18.5699 13.5401 18.511C13.5465 18.5008 13.5767 18.4652 13.6944 18.448C13.7308 18.4427 13.7717 18.44 13.8167 18.4395C13.8617 18.44 13.9026 18.4428 13.9391 18.448C14.0566 18.4652 14.0867 18.5008 14.0933 18.5111C14.1291 18.5699 14.1711 18.7402 14.2117 18.905C14.2401 19.0197 14.2693 19.1381 14.303 19.2508L14.3315 19.3482C14.4269 19.6787 14.5709 20.1783 14.84 20.3768C15.025 20.5133 15.5091 20.6571 16.0444 20.7351C16.4052 20.7875 16.7623 20.8068 17.0766 20.7906C17.9222 20.7472 18.7605 20.6235 19.1148 20.49C19.4755 20.3547 19.5652 20.129 19.6557 19.7451C19.6678 19.693 19.6789 19.6451 19.691 19.5959L19.6936 19.5656C19.6936 19.5656 19.8521 18.5893 19.9336 17.8295C20.372 17.8879 20.8209 17.9947 20.8209 17.9947L20.9019 17.4558C20.4771 17.2764 19.9803 17.2134 19.9803 17.2134Z" fill="#545352"/>
<path d="M11.7615 15.8489C11.7615 15.8489 10.6005 15.2964 9.9359 16.3224C9.9359 16.3224 9.86735 15.3021 10.805 15.1881C11.7426 15.0739 11.7615 15.8488 11.7615 15.8488V15.8489ZM11.326 14.3498C11.326 14.3498 10.2497 13.8429 9.75935 14.8171C9.75935 14.8171 9.59914 13.9659 10.3673 13.7605C11.1354 13.555 11.326 14.3498 11.326 14.3498ZM15.9203 16.4744C15.9203 16.4744 16.822 16.0453 17.338 16.8422C17.338 16.8422 17.3913 16.0499 16.6631 15.9612C15.9349 15.8726 15.9203 16.4744 15.9203 16.4744ZM16.5615 15.0554C16.5615 15.0554 17.4738 14.9079 17.6301 15.74C17.6301 15.74 17.9329 15.1392 17.4039 14.8212C16.8749 14.503 16.5615 15.0552 16.5615 15.0552" fill="#A0D1DE"/>
<path d="M11.6807 23.9316C11.6807 23.9316 12.3177 23.5043 12.6937 23.4456C12.6937 23.4456 12.7758 24.2517 13.1494 24.6489C13.1494 24.6489 13.9558 23.9236 14.7533 23.8721C14.7533 23.8721 14.9592 24.3141 15.2933 24.478L15.2915 24.4831C15.4121 24.5583 15.5598 24.6343 15.7029 24.666C15.7029 24.666 16.1607 24.3896 16.293 23.8848C16.293 23.8848 16.3371 24.9504 15.6668 25.5313C15.6668 25.5313 15.1557 25.2824 14.7874 24.8839C14.6767 24.7765 14.5617 24.6513 14.506 24.5498C14.506 24.5498 13.3232 25.3847 13.2801 25.8608C13.2801 25.8608 12.4263 25.0302 12.1352 24.3902C12.1352 24.3902 11.5655 24.5697 11.4075 24.6853C11.4075 24.6853 10.9496 23.9379 10.8565 23.2634C10.8565 23.2634 11.4073 23.7884 11.6807 23.9316Z" fill="#B2DCE5"/>
<path d="M13.8304 21.837C13.7832 21.8269 15.0299 21.9231 16.2542 21.8797C16.2542 21.8797 16.3196 21.6466 16.4135 21.5186C16.4135 21.5186 16.3931 21.9108 16.5031 21.9912C16.5031 21.9912 15.8904 22.2318 15.2726 22.23C15.2726 22.23 15.9458 22.1179 16.1716 22.002C16.1716 22.002 14.9431 22.0702 13.8304 21.837Z" fill="#545352"/>
</svg>
