<svg width="23" height="23" viewBox="0 0 23 23" fill="none" xmlns="http://www.w3.org/2000/svg">
<path d="M11.5011 0C8.37784 0 7.98588 0.013657 6.7592 0.0694822C5.53491 0.125547 4.69924 0.319378 3.96802 0.603775C3.21165 0.897516 2.57004 1.29045 1.93082 1.92992C1.29113 2.56916 0.898207 3.21079 0.603517 3.96694C0.318409 4.69842 0.124345 5.53436 0.0692402 6.7582C0.014375 7.98492 0 8.37713 0 11.5005C0 14.6238 0.0138962 15.0146 0.0694801 16.2413C0.125783 17.4656 0.319608 18.3013 0.603756 19.0326C0.897728 19.7889 1.29065 20.4306 1.9301 21.0698C2.56908 21.7095 3.21069 22.1034 3.96658 22.3972C4.69828 22.6816 5.53419 22.8754 6.75824 22.9315C7.98492 22.9873 8.37664 23.0009 11.4996 23.0009C14.6231 23.0009 15.0139 22.9873 16.2406 22.9315C17.4648 22.8754 18.3015 22.6816 19.0332 22.3972C19.7893 22.1034 20.43 21.7095 21.0689 21.0698C21.7086 20.4306 22.1016 19.789 22.3962 19.0328C22.679 18.3013 22.873 17.4654 22.9305 16.2415C22.9856 15.0148 23 14.6238 23 11.5005C23 8.37713 22.9856 7.98516 22.9305 6.75844C22.873 5.53412 22.679 4.69842 22.3962 3.96718C22.1016 3.21079 21.7086 2.56916 21.0689 1.92992C20.4292 1.29021 19.7896 0.897276 19.0325 0.603775C18.2993 0.319378 17.4632 0.125547 16.2389 0.0694822C15.0122 0.013657 14.6217 0 11.4975 0H11.5011ZM10.4694 2.07248C10.7756 2.072 11.1173 2.07248 11.5011 2.07248C14.5716 2.07248 14.9355 2.0835 16.1481 2.13861C17.2693 2.18988 17.8779 2.37724 18.2833 2.53466C18.8199 2.7431 19.2026 2.99228 19.6048 3.39479C20.0073 3.79731 20.2565 4.18066 20.4654 4.71735C20.6228 5.12226 20.8104 5.73083 20.8615 6.85212C20.9166 8.06446 20.9285 8.42864 20.9285 11.4978C20.9285 14.567 20.9166 14.9312 20.8615 16.1435C20.8102 17.2648 20.6228 17.8734 20.4654 18.2783C20.257 18.815 20.0073 19.1972 19.6048 19.5994C19.2023 20.0019 18.8202 20.2511 18.2833 20.4596C17.8784 20.6177 17.2693 20.8046 16.1481 20.8559C14.9358 20.911 14.5716 20.9229 11.5011 20.9229C8.43031 20.9229 8.06638 20.911 6.85407 20.8559C5.73281 20.8041 5.12426 20.6167 4.71864 20.4593C4.18197 20.2509 3.79863 20.0017 3.39613 19.5992C2.99362 19.1967 2.74446 18.8143 2.53554 18.2774C2.37813 17.8724 2.19053 17.2639 2.1395 16.1426C2.0844 14.9302 2.07338 14.5661 2.07338 11.495C2.07338 8.42385 2.0844 8.06159 2.1395 6.84925C2.19077 5.72795 2.37813 5.11939 2.53554 4.71399C2.74398 4.17731 2.99362 3.79396 3.39613 3.39144C3.79863 2.98892 4.18197 2.73975 4.71864 2.53082C5.12402 2.37269 5.73281 2.18581 6.85407 2.1343C7.91496 2.08638 8.32609 2.072 10.4694 2.06961V2.07248ZM17.6397 3.98204C16.8779 3.98204 16.2597 4.59947 16.2597 5.36161C16.2597 6.12352 16.8779 6.74167 17.6397 6.74167C18.4016 6.74167 19.0198 6.12352 19.0198 5.36161C19.0198 4.59971 18.4016 3.98156 17.6397 3.98156V3.98204ZM11.5011 5.5945C8.2396 5.5945 5.59529 8.23889 5.59529 11.5005C5.59529 14.762 8.2396 17.4052 11.5011 17.4052C14.7626 17.4052 17.4059 14.762 17.4059 11.5005C17.4059 8.23889 14.7623 5.5945 11.5008 5.5945H11.5011ZM11.5011 7.66698C13.6181 7.66698 15.3345 9.38318 15.3345 11.5005C15.3345 13.6175 13.6181 15.334 11.5011 15.334C9.38386 15.334 7.66771 13.6175 7.66771 11.5005C7.66771 9.38318 9.38386 7.66698 11.5011 7.66698Z" fill="white"/>
</svg>
