<svg width="32" height="100" viewBox="0 0 32 45" fill="none" xmlns="http://www.w3.org/2000/svg">
<path d="M6.40189 0.0132105C8.36824 -0.0110739 10.3346 0.00573837 12.3009 0.00480435C12.3056 0.618453 12.315 1.2321 12.2925 1.84575C10.9301 1.83641 9.56864 1.84575 8.20718 1.85416C8.19782 2.74521 8.18003 3.63626 8.18845 4.52731C9.55554 4.53572 10.9236 4.54879 12.2906 4.54319C12.3066 5.04756 12.3009 5.55379 12.286 6.0591C10.3252 6.04602 8.36449 6.05162 6.40376 6.05349C6.40844 4.03975 6.41219 2.02695 6.40189 0.0132105Z" fill="black"/>
<path d="M13.0023 0.00667535C14.993 0.00293929 16.9837 -0.00920292 18.9753 0.0132135C18.9678 0.593237 18.9734 1.17233 18.9734 1.75235C17.5249 1.74768 16.0754 1.75422 14.6268 1.77103C14.6287 1.99893 14.6287 2.22683 14.6268 2.45473C16.0735 2.47808 17.5193 2.48088 18.965 2.48929C18.9706 3.67829 18.9678 4.86636 18.9753 6.05443C16.9837 6.05069 14.992 6.05256 13.0004 6.0619C12.9901 5.58182 12.9892 5.10267 13.0032 4.62258C14.3834 4.62632 15.7645 4.62819 17.1447 4.61698C17.1531 4.30782 17.1569 3.99773 17.1559 3.68857C15.7692 3.68857 14.3815 3.69324 12.9948 3.6839C12.9948 2.45847 12.9948 1.2321 13.0023 0.00667535Z" fill="black"/>
<path d="M19.642 0.0169373C21.6289 0.0169373 23.6168 0.0169373 25.6037 0.0169373C25.6122 0.599763 25.6206 1.18259 25.6019 1.76448C24.1468 1.76355 22.6917 1.77195 21.2366 1.77476C21.2403 2.01293 21.2459 2.2511 21.2581 2.48928C22.7048 2.48274 24.1515 2.50049 25.5972 2.51543C25.6103 3.69883 25.6197 4.88223 25.6028 6.06563C23.6112 6.06002 21.6196 6.06002 19.6279 6.06936C19.6158 5.59115 19.612 5.11106 19.6326 4.63284C21.01 4.64312 22.3883 4.64125 23.7666 4.62817C23.7704 4.31808 23.7769 4.00799 23.7741 3.69883C22.3911 3.7119 21.0072 3.70443 19.6232 3.69976C19.6232 2.47247 19.6326 1.24423 19.642 0.0169373Z" fill="black"/>
<path d="M0 8.55946C10.667 8.55852 21.333 8.55759 32 8.55946C31.4129 15.177 30.8352 21.7945 30.2237 28.4101C29.8604 32.6384 29.4859 36.8667 29.0907 41.0922C26.8145 41.6937 24.5606 42.3792 22.2853 42.9836C20.1953 43.5953 18.0885 44.1492 15.9977 44.7563H15.9359C13.9461 44.166 11.9367 43.6467 9.94692 43.0564C7.59854 42.425 5.27075 41.7208 2.92143 41.0922C2.61525 37.9249 2.33902 34.7558 2.06654 31.5867C1.55248 25.7313 0.993475 19.8797 0.499078 14.0235C0.327725 12.261 0.205062 10.4929 0 8.73412V8.55946ZM16.0501 11.17C16.0276 12.4412 16.0669 13.7134 16.0276 14.9836C12.3683 14.9705 8.70812 14.9808 5.04884 14.9846C5.11157 16.2184 5.27731 17.4438 5.44773 18.6674C8.85232 18.7935 12.2616 18.6627 15.6662 18.7645C12.6876 20.0974 9.67257 21.3527 6.68091 22.6575C6.42435 22.7714 6.14999 22.8574 5.92059 23.0236C5.94587 24.3789 6.16497 25.7267 6.26142 27.0791C8.07608 27.0726 9.8898 27.0436 11.7045 27.0408C13.1586 27.0334 14.6137 27.0623 16.0679 27.0306C15.9986 29.2591 16.0894 31.4905 16.0211 33.719C15.0426 33.5743 14.0763 33.3567 13.1015 33.1839C12.3328 33.0167 11.5453 32.9298 10.7878 32.7103C10.6801 31.6409 10.6052 30.5677 10.5097 29.4973C10.2906 29.43 10.0583 29.4366 9.83175 29.4328C8.73247 29.4394 7.63225 29.4291 6.53203 29.4459C6.63971 31.5036 6.82511 33.5584 7.14066 35.5964C8.22496 35.8785 9.31113 36.155 10.3936 36.4492C12.0519 36.8994 13.7307 37.2739 15.3918 37.7166C15.5894 37.7587 15.7889 37.8315 15.9939 37.8147C16.1044 39.1681 16.0192 40.5299 16.0398 41.887C16.4228 41.8254 16.7992 41.731 17.169 41.6171C20.3133 40.7653 23.4539 39.8976 26.5963 39.0373C26.7527 37.8044 26.8257 36.5631 26.9493 35.3274C27.2761 31.5708 27.6057 27.8142 27.9484 24.0585C28.3501 19.762 28.6975 15.4609 29.102 11.1644C24.7507 11.1682 20.4004 11.156 16.0501 11.17Z" fill="#0170BA"/>
<path d="M16.0501 11.17C20.4004 11.156 24.7507 11.1682 29.102 11.1644C28.6975 15.4609 28.3501 19.7621 27.9484 24.0585C27.6057 27.8142 27.2761 31.5708 26.9493 35.3274C26.8257 36.5631 26.7526 37.8044 26.5963 39.0373C23.4539 39.8976 20.3133 40.7653 17.169 41.6171C16.7992 41.731 16.4228 41.8254 16.0398 41.887C16.0192 40.5299 16.1044 39.1681 15.9939 37.8147C16.022 37.8091 16.0791 37.7979 16.1072 37.7923C19.0314 37.06 21.936 36.254 24.8537 35.4956C25.2226 31.3672 25.6318 27.2407 25.8912 23.104C23.4099 23.117 20.9276 23.1096 18.4462 23.1198C18.0848 23.1217 17.7234 23.1198 17.3638 23.0937C18.699 22.4081 20.1036 21.8645 21.4744 21.2527C22.79 20.6578 24.1215 20.1002 25.4417 19.5164C25.6964 19.3997 25.968 19.3025 26.1918 19.1288C26.2798 18.8066 26.2751 18.4694 26.3098 18.1397C26.3856 17.0936 26.5204 16.0531 26.571 15.006C23.0568 14.978 19.5427 15.0023 16.0276 14.9836C16.0669 13.7134 16.0276 12.4412 16.0501 11.17Z" fill="#29A9DF"/>
<path d="M16.0679 27.0305C17.7646 27.0016 19.4622 27.0474 21.1598 27.0362C21.0652 28.7669 20.921 30.4948 20.8311 32.2255C19.7908 32.5646 18.7346 32.8513 17.6859 33.1652C17.1269 33.3352 16.5529 33.4697 16.0211 33.719C16.0894 31.4905 15.9986 29.2591 16.0679 27.0305Z" fill="#29A9DF"/>
<path d="M5.04885 14.9845C8.70813 14.9808 12.3684 14.9705 16.0276 14.9836C16.0754 18.9999 16.0155 23.0161 16.0679 27.0305C14.6137 27.0623 13.1586 27.0333 11.7045 27.0408C9.88982 27.0436 8.07609 27.0726 6.26143 27.0791C6.16499 25.7267 5.94588 24.3789 5.9206 23.0236C6.15001 22.8574 6.42436 22.7714 6.68092 22.6575C9.67258 21.3527 12.6877 20.0973 15.6662 18.7645C12.2616 18.6627 8.85233 18.7935 5.44774 18.6674C5.27732 17.4438 5.11159 16.2184 5.04885 14.9845Z" fill="#CFCFCF"/>
<path d="M6.53202 29.4459C7.63224 29.4291 8.73246 29.4394 9.83174 29.4328C10.0583 29.4366 10.2906 29.43 10.5097 29.4973C10.6052 30.5677 10.6801 31.6408 10.7878 32.7103C11.5453 32.9298 12.3327 33.0167 13.1015 33.1838C14.0762 33.3566 15.0426 33.5743 16.0211 33.719C16.1147 35.0752 15.9508 36.4408 16.1072 37.7923C16.0791 37.7979 16.022 37.8091 15.9939 37.8147C15.7888 37.8315 15.5894 37.7586 15.3918 37.7166C13.7307 37.2739 12.0518 36.8994 10.3936 36.4492C9.31113 36.1549 8.22495 35.8785 7.14065 35.5964C6.8251 33.5584 6.6397 31.5035 6.53202 29.4459Z" fill="#CFCFCF"/>
<path d="M16.0276 14.9836C19.5427 15.0023 23.0569 14.978 26.571 15.006C26.5204 16.0531 26.3856 17.0936 26.3098 18.1397C26.2751 18.4694 26.2798 18.8065 26.1918 19.1288C25.968 19.3025 25.6964 19.3996 25.4418 19.5164C24.1215 20.1002 22.79 20.6578 21.4744 21.2527C20.1036 21.8645 18.6991 22.4081 17.3638 23.0937C17.7234 23.1198 18.0848 23.1217 18.4462 23.1198C20.9276 23.1096 23.4099 23.117 25.8912 23.1039C25.6318 27.2407 25.2227 31.3672 24.8537 35.4955C21.936 36.254 19.0315 37.06 16.1072 37.7923C15.9508 36.4408 16.1147 35.0752 16.0211 33.719C16.5529 33.4697 17.1269 33.3352 17.6859 33.1652C18.7346 32.8513 19.7908 32.5646 20.8311 32.2255C20.921 30.4948 21.0652 28.7669 21.1598 27.0362C19.4622 27.0474 17.7646 27.0016 16.0679 27.0305C16.0155 23.0161 16.0754 18.9999 16.0276 14.9836Z" fill="white"/>
</svg>
