<svg width="130" height="100" viewBox="0 0 130 98" fill="none" xmlns="http://www.w3.org/2000/svg">
<path d="M111.876 56.3336C107.343 56.3575 103.403 57.4554 100.105 59.0784C98.8945 56.6678 97.6842 54.5197 97.4706 52.9444C97.2333 51.1066 96.9485 49.9849 97.2333 47.789C97.5181 45.5932 98.7996 42.4666 98.7758 42.2279C98.7521 41.9892 98.4911 40.8675 95.8806 40.8436C93.2702 40.8197 91.0157 41.3448 90.7547 42.037C90.4936 42.7291 89.9953 44.3044 89.663 45.9274C89.2121 48.3141 84.4421 56.8348 81.713 61.298C80.835 59.5557 80.0756 58.0282 79.9095 56.811C79.6722 54.9732 79.3874 53.8514 79.6722 51.6556C79.9569 49.4598 81.2384 46.3331 81.2147 46.0945C81.191 45.8558 80.9299 44.734 78.3195 44.7101C75.709 44.6863 73.4546 45.2114 73.1935 45.9035C72.9325 46.5957 72.6477 48.2187 72.1019 49.7939C71.556 51.3692 65.2198 65.5942 63.5586 69.2698C62.7043 71.1553 61.9686 72.659 61.4465 73.6853C61.4465 73.6853 61.4228 73.7569 61.3516 73.8762C60.9007 74.7593 60.6397 75.2367 60.6397 75.2367C60.6397 75.2367 60.6397 75.2367 60.6397 75.2605C60.2837 75.905 59.904 76.5016 59.7141 76.5016C59.5718 76.5016 59.3107 74.7832 59.7616 72.4442C60.7109 67.5036 62.9653 59.8183 62.9416 59.5557C62.9416 59.4125 63.3688 58.0759 61.4703 57.3838C59.6192 56.6916 58.9547 57.8373 58.7886 57.8373C58.6225 57.8373 58.5038 58.243 58.5038 58.243C58.5038 58.243 60.5685 49.603 54.5644 49.603C50.8149 49.603 45.6415 53.7321 43.0785 57.4554C41.4648 58.3385 38.0237 60.224 34.3454 62.2527C32.9452 63.0404 31.4976 63.828 30.145 64.5679C30.05 64.4724 29.9551 64.3531 29.8602 64.2576C22.5984 56.4529 9.1665 50.9396 9.73605 40.4617C9.94963 36.6429 11.2548 26.6186 35.532 14.4461C55.5137 4.54112 71.4137 7.28588 74.1665 13.3721C78.1059 22.0599 65.647 38.1943 45.0007 40.5333C37.122 41.4164 32.9927 38.3614 31.9485 37.2157C30.8569 36.0224 30.6908 35.9508 30.2873 36.1894C29.6229 36.5475 30.05 37.6215 30.2873 38.242C30.9044 39.865 33.4436 42.7291 37.739 44.1373C41.536 45.3784 50.7674 46.0706 61.9449 41.7267C74.4513 36.8577 84.2286 23.3248 81.3571 11.9878C78.4856 0.483645 59.5006 -3.31129 41.536 3.10907C30.8569 6.92787 19.276 12.9425 10.9463 20.771C1.0504 30.0794 -0.515866 38.1704 0.124879 41.5596C2.42681 53.5888 18.9201 61.4174 25.5174 67.2172C25.1851 67.4081 24.8766 67.5752 24.6156 67.7184C21.3169 69.3653 8.73934 75.9766 5.60681 82.9697C2.04711 90.8938 6.17636 96.5742 8.90545 97.338C17.3775 99.7009 26.0869 95.4524 30.762 88.4354C35.437 81.4184 34.8675 72.301 32.7079 68.1242C32.6842 68.0764 32.6605 68.0287 32.613 67.9809C33.4673 67.4797 34.3454 66.9546 35.1997 66.4534C36.8846 65.451 38.5458 64.5202 39.9697 63.7564C39.1628 65.9761 38.5696 68.6254 38.2848 72.4442C37.9288 76.9313 39.7561 82.7549 42.153 85.0462C43.2209 86.0486 44.4787 86.0725 45.2855 86.0725C48.0858 86.0725 49.3436 83.7335 50.7437 80.9649C52.4524 77.5757 53.9949 73.6376 53.9949 73.6376C53.9949 73.6376 52.0727 84.2825 57.2935 84.2825C59.192 84.2825 61.1143 81.8002 61.9686 80.5353C61.9686 80.5591 61.9686 80.5591 61.9686 80.5591C61.9686 80.5591 62.0161 80.4875 62.111 80.3204C62.3009 80.0102 62.4195 79.8192 62.4195 79.8192C62.4195 79.8192 62.4195 79.7954 62.4195 79.7715C63.1789 78.4349 64.8876 75.4037 67.4268 70.3677C70.7017 63.8757 73.858 55.7608 73.858 55.7608C73.858 55.7608 74.1428 57.7418 75.1157 61.0355C75.6853 62.9688 76.8719 65.093 77.8211 67.1456C77.0617 68.2196 76.5871 68.8163 76.5871 68.8163C76.5871 68.8163 76.5871 68.8163 76.6108 68.8402C75.9938 69.6517 75.3293 70.5348 74.5937 71.394C72.0069 74.4968 68.9219 78.053 68.4947 79.0793C67.9964 80.2966 68.115 81.1797 69.0643 81.8957C69.7525 82.4208 70.9865 82.4924 72.2443 82.4208C74.5699 82.2537 76.2074 81.6809 77.0142 81.3229C78.272 80.8694 79.7433 80.1772 81.1198 79.1509C83.659 77.2654 85.2015 74.5684 85.0592 71.0121C84.988 69.055 84.3472 67.0978 83.5641 65.2601C83.8014 64.9259 84.015 64.5918 84.2523 64.2576C88.2629 58.3623 91.3717 51.8943 91.3717 51.8943C91.3717 51.8943 91.6564 53.8753 92.6294 57.169C93.1041 58.8397 94.077 60.6536 94.9314 62.4198C91.1581 65.4987 88.8324 69.0789 88.0018 71.4179C86.5068 75.7618 87.6696 77.7189 89.8766 78.1724C90.8733 78.3872 92.2972 77.9098 93.3414 77.4564C94.6703 77.0267 96.2366 76.2868 97.7317 75.1889C100.271 73.3034 102.715 70.678 102.573 67.1217C102.502 65.4987 102.074 63.8996 101.481 62.3482C104.685 61.0116 108.814 60.2718 114.083 60.8923C125.379 62.2289 127.609 69.3175 127.182 72.301C126.755 75.2844 124.382 76.9074 123.599 77.4086C122.816 77.9098 122.555 78.0769 122.626 78.4349C122.721 78.96 123.1 78.9361 123.765 78.8407C124.69 78.6736 129.698 76.43 129.911 70.9405C130.267 63.9235 123.622 56.262 111.876 56.3336ZM24.7342 85.8816C20.9847 89.9868 15.7638 91.5382 13.5093 90.2255C11.0887 88.8173 12.038 82.7549 16.6419 78.411C19.4421 75.7618 23.0493 73.3034 25.4462 71.7998C25.992 71.4656 26.7988 70.9883 27.7718 70.3916C27.9379 70.2961 28.0329 70.2484 28.0329 70.2484C28.2227 70.129 28.4126 70.0097 28.6024 69.8904C30.2873 76.0959 28.6736 81.5616 24.7342 85.8816ZM52.0252 67.2172C50.72 70.4154 47.9909 78.602 46.3297 78.1485C44.9058 77.7666 44.0278 71.5611 46.0449 65.4271C47.0654 62.3482 49.2249 58.6726 50.4827 57.2406C52.5236 54.9493 54.778 54.1855 55.3239 55.1164C56.0121 56.3336 52.8321 65.2123 52.0252 67.2172ZM74.5462 78.053C74.0004 78.3394 73.4783 78.5304 73.241 78.3872C73.0749 78.2917 73.4783 77.9098 73.4783 77.9098C73.4783 77.9098 76.3023 74.8548 77.4177 73.4705C78.0584 72.659 78.8178 71.7043 79.6247 70.6302C79.6247 70.7257 79.6247 70.8451 79.6247 70.9405C79.6247 74.5923 76.1125 77.0506 74.5462 78.053ZM91.9175 74.0672C91.5141 73.7808 91.5853 72.8261 92.9379 69.8426C93.46 68.6731 94.6941 66.716 96.8061 64.8304C97.0434 65.5942 97.2096 66.3341 97.1858 67.0262C97.1621 71.6327 93.8872 73.3511 91.9175 74.0672Z" fill="#CD6799"/>
</svg>
