<svg width="102" height="80" viewBox="0 0 152 101" fill="none" xmlns="http://www.w3.org/2000/svg">
<path d="M30.5647 36.3588L6.00301 11.7921C3.30598 9.09508 3.30598 4.72148 6.00301 2.02277C8.70172 -0.674256 13.0753 -0.674256 15.7723 2.02277L40.3323 26.5912L30.5647 36.3588Z" fill="#FFC139"/>
<path d="M121.427 36.3588L111.659 26.5912L136.219 2.02277C138.916 -0.674256 143.29 -0.674256 145.988 2.02277C148.685 4.72148 148.685 9.09508 145.988 11.7921L121.427 36.3588Z" fill="#FFC139"/>
<path d="M151.991 100.563H0V86.7455C0 44.7738 34.024 10.7498 75.9957 10.7498C117.967 10.7498 151.991 44.7738 151.991 86.7455V100.563Z" fill="#FFC139"/>
<path d="M41.4522 59.1107H55.2696V72.9281H41.4522V59.1107Z" fill="white"/>
<path d="M96.7218 59.1107H110.539V72.9281H96.7218V59.1107Z" fill="white"/>
</svg>
