<svg width="97" height="80" viewBox="0 0 97 97" fill="none" xmlns="http://www.w3.org/2000/svg">
<path d="M49.16 51.833L37.694 85.152C41.119 86.156 44.74 86.71 48.492 86.71C52.941 86.71 57.211 85.94 61.181 84.543C61.079 84.379 60.986 84.205 60.91 84.016L49.16 51.833Z" fill="#FFC139"/>
<path d="M10.272 48.4881C10.272 63.6171 19.064 76.6901 31.813 82.8841L13.583 32.9351C11.463 37.6881 10.272 42.9481 10.272 48.4881Z" fill="#FFC139"/>
<path d="M74.289 46.56C74.289 41.837 72.594 38.567 71.14 36.019C69.202 32.871 67.386 30.206 67.386 27.057C67.386 23.544 70.05 20.274 73.804 20.274C73.974 20.274 74.134 20.295 74.3 20.303C67.502 14.076 58.444 10.272 48.493 10.272C35.139 10.272 23.392 17.122 16.561 27.499C17.457 27.526 18.3 27.545 19.02 27.545C23.018 27.545 29.207 27.06 29.207 27.06C31.269 26.936 31.509 29.963 29.452 30.206C29.452 30.206 27.381 30.449 25.078 30.571L38.993 71.968L47.356 46.883L41.4 30.57C39.342 30.448 37.393 30.205 37.393 30.205C35.335 30.085 35.575 26.937 37.634 27.059C37.634 27.059 43.947 27.544 47.7 27.544C51.697 27.544 57.888 27.059 57.888 27.059C59.95 26.937 60.191 29.962 58.131 30.205C58.131 30.205 56.058 30.448 53.757 30.57L67.57 71.653L71.382 58.915C73.033 53.629 74.289 49.831 74.289 46.56Z" fill="#FFC139"/>
<path d="M82.025 30.153C82.189 31.369 82.283 32.678 82.283 34.083C82.283 37.961 81.56 42.321 79.378 47.772L67.703 81.523C79.064 74.897 86.709 62.587 86.709 48.49C86.71 41.844 85.011 35.596 82.025 30.153Z" fill="#FFC139"/>
<path d="M48.49 0C21.71 0 0.000976562 21.71 0.000976562 48.49C0.000976562 75.27 21.71 96.98 48.49 96.98C75.27 96.98 96.979 75.27 96.979 48.49C96.979 21.71 75.27 0 48.49 0ZM48.492 90.997C25.052 90.997 5.98498 71.93 5.98498 48.488C5.98498 25.05 25.051 5.983 48.492 5.983C71.929 5.983 90.995 25.051 90.995 48.488C90.996 71.928 71.928 90.997 48.492 90.997Z" fill="#FFC139"/>
</svg>
