<svg width="101" height="50" viewBox="0 0 101 99" fill="none" xmlns="http://www.w3.org/2000/svg">
<path d="M17.8854 0H83.1146C93.0042 0 101 8.03846 101 17.9808V81.0192C101 90.9615 93.0042 99 83.1146 99H17.8854C7.99583 99 0 90.9615 0 81.0192V17.9808C0 8.03846 7.99583 0 17.8854 0Z" fill="#470137"/>
<path d="M53.1092 26.0191L40.4842 46.9614L53.9508 69.173C54.035 69.3422 54.0771 69.5114 54.035 69.6807C53.9929 69.8499 53.8246 69.723 53.5721 69.7653H43.935C43.2617 69.7653 42.7988 69.723 42.5042 69.2999C41.6204 67.523 40.6946 65.7884 39.8108 64.0114C38.9271 62.2768 37.9592 60.4999 36.9492 58.6807C35.9392 56.8614 34.9292 55.0422 33.9192 53.1807H33.835C32.9513 54.9999 31.9833 56.8191 31.0154 58.6384C30.0475 60.4576 29.0796 62.2768 28.1538 64.0537C27.1858 65.8307 26.2179 67.6499 25.25 69.3845C25.0817 69.8076 24.745 69.8499 24.2821 69.8499H15.0238C14.8554 69.8499 14.7292 69.9345 14.7292 69.723C14.6871 69.5538 14.7292 69.3845 14.8133 69.2576L27.9013 47.6807L15.15 25.9768C15.0238 25.8076 14.9817 25.6384 15.0658 25.5538C15.15 25.4268 15.3183 25.3845 15.4867 25.3845H25.0396C25.25 25.3845 25.4604 25.4268 25.6288 25.4691C25.7971 25.5538 25.9233 25.6807 26.0496 25.8499C26.8492 27.6691 27.775 29.4884 28.7429 31.3076C29.7529 33.1268 30.7208 34.9038 31.7729 36.6807C32.7829 38.4576 33.7088 40.2345 34.5925 42.0538H34.6767C35.5604 40.1922 36.4863 38.373 37.4121 36.5961C38.3379 34.8191 39.3058 33.0422 40.2738 31.2653C41.2417 29.4884 42.1675 27.6691 43.0933 25.9345C43.1354 25.7653 43.2196 25.5961 43.3458 25.5114C43.5142 25.4268 43.6825 25.3845 43.8929 25.4268H52.7725C52.9829 25.3845 53.1933 25.5114 53.2354 25.723C53.2775 25.7653 53.1933 25.9345 53.1092 26.0191Z" fill="#FF61F6"/>
<path d="M72.5517 70.6538C69.4375 70.6961 66.3233 70.0615 63.5038 68.75C60.8525 67.5231 58.6642 65.4923 57.1492 62.9961C55.5921 60.4154 54.8346 57.2 54.8346 53.35C54.7925 50.2192 55.5921 47.1308 57.1492 44.4231C58.7483 41.6731 61.0629 39.3885 63.8404 37.8654C66.7863 36.2154 70.3213 35.4115 74.4875 35.4115C74.6979 35.4115 74.9925 35.4115 75.3713 35.4538C75.75 35.4961 76.1708 35.4961 76.6758 35.5385V22.1692C76.6758 21.8731 76.8021 21.7038 77.0967 21.7038H85.6396C85.85 21.6615 86.0183 21.8308 86.0604 22C86.0604 22.0423 86.0604 22.0846 86.0604 22.0846V62.3615C86.0604 63.1231 86.1025 63.9692 86.1446 64.9C86.2288 65.7884 86.2708 66.6346 86.3129 67.3538C86.3129 67.65 86.1867 67.9038 85.8921 68.0308C83.7038 68.9615 81.3892 69.6385 79.0325 70.0615C76.8863 70.4423 74.74 70.6538 72.5517 70.6538ZM76.6758 62.1923V43.5769C76.2971 43.4923 75.9183 43.4077 75.5396 43.3654C75.0767 43.3231 74.6138 43.2808 74.1508 43.2808C72.5096 43.2808 70.8683 43.6192 69.3954 44.3808C67.9646 45.1 66.7442 46.1577 65.8183 47.5115C64.8925 48.8654 64.4296 50.6846 64.4296 52.8846C64.3875 54.3654 64.64 55.8461 65.145 57.2423C65.5658 58.3846 66.1971 59.4 67.0388 60.2461C67.8383 61.0077 68.8063 61.6 69.9004 61.9384C71.0367 62.3192 72.215 62.4885 73.3933 62.4885C74.0246 62.4885 74.6138 62.4461 75.1608 62.4038C75.7079 62.4461 76.1708 62.3615 76.6758 62.1923Z" fill="#FF61F6"/>
</svg>
