<svg width="22" height="22" viewBox="0 0 22 22" fill="none" xmlns="http://www.w3.org/2000/svg">
<path d="M11 22C17.0751 22 22 17.0751 22 11C22 4.92487 17.0751 0 11 0C4.92487 0 0 4.92487 0 11C0 17.0751 4.92487 22 11 22Z" fill="white"/>
<path d="M15.2818 14.1801L15.769 10.9997H12.7186V8.9361C12.7186 8.06675 13.144 7.2175 14.5114 7.2175H15.899V4.51043C15.899 4.51043 14.6398 4.29541 13.4363 4.29541C10.9242 4.29541 9.28137 5.81756 9.28137 8.57568V10.9997H6.48767V14.1801H9.28137V21.8666C9.84134 21.9548 10.4152 21.9997 11 21.9997C11.5847 21.9997 12.1586 21.9532 12.7186 21.8666V14.1801H15.2818Z" fill="#FFC139"/>
</svg>
