<svg width="102" height="80" viewBox="0 0 102 119" fill="none" xmlns="http://www.w3.org/2000/svg">
<path d="M72.8735 0C66.5516 0.437272 59.1624 4.4839 54.8564 9.7534C50.9284 14.5338 47.697 21.6339 48.9569 28.5339C55.8644 28.7488 63.0015 24.6058 67.1371 19.2474C71.0058 14.2595 73.9333 7.20388 72.8735 0Z" fill="#FFC139"/>
<path d="M97.8573 39.7846C91.7874 32.1731 83.2569 27.7559 75.2007 27.7559C64.5653 27.7559 60.0666 32.8475 52.6774 32.8475C45.0585 32.8475 39.2702 27.7707 30.0727 27.7707C21.0382 27.7707 11.4182 33.2922 5.3186 42.7343C-3.25638 56.0303 -1.78893 81.029 12.1074 102.322C17.0805 109.941 23.7211 118.508 32.4073 118.583C40.1374 118.657 42.3163 113.624 52.7886 113.572C63.2609 113.513 65.2472 118.649 72.9624 118.568C81.656 118.501 88.6598 109.007 93.6328 101.388C97.1977 95.9259 98.5243 93.1763 101.289 87.01C81.1817 79.354 77.9577 50.7608 97.8573 39.7846Z" fill="#FFC139"/>
</svg>
