<svg width="52" height="100" viewBox="0 0 52 31" fill="none" xmlns="http://www.w3.org/2000/svg">
<path d="M26 0C19.0681 0 14.7322 3.39161 12.9984 10.1748C15.6006 6.78322 18.6339 5.50943 22.1014 6.35656C24.0775 6.84196 25.4903 8.2456 27.0572 9.80073C29.606 12.3298 32.5574 15.2607 39.0016 15.2607C45.9334 15.2607 50.2662 11.8691 52 5.08587C49.4009 8.47748 46.3677 9.74817 42.9002 8.90104C40.9241 8.41873 39.5082 7.012 37.9443 5.45996C35.3956 2.92785 32.4441 0 26 0ZM12.9984 15.2607C6.06656 15.2607 1.73375 18.6523 0 25.4355C2.59906 22.0439 5.63234 20.7732 9.09984 21.6203C11.079 22.1027 12.4918 23.5094 14.0557 25.0614C16.6044 27.5935 19.5559 30.5214 26 30.5214C32.935 30.5214 37.2678 27.1298 39.0016 20.3466C36.3994 23.7382 33.3661 25.012 29.9017 24.1648C27.9225 23.6794 26.5097 22.2758 24.9428 20.7207C22.394 18.1916 19.4426 15.2607 12.9984 15.2607Z" fill="#06B6D4"/>
</svg>
