<svg width="167" height="10" viewBox="0 0 167 54" fill="none" xmlns="http://www.w3.org/2000/svg">
<path d="M32.1373 5.13761L27.0776 12.8205C27.0776 12.8205 22.6099 8.97905 17.6868 8.97905C12.7637 8.97905 12.9915 14.9575 16.2739 15.7302C19.5558 16.5035 32.8666 19.3218 32.8666 29.0055C32.8666 38.6891 22.8838 41.9174 17.7324 41.9174C12.5816 41.9174 2.32492 38.5983 0 34.6427C1.32186 33.3698 6.97421 28.0051 6.97421 28.0051C6.97421 28.0051 12.5816 32.7334 17.0942 32.7334C21.6074 32.7334 21.9262 29.7328 21.9262 28.9601C21.9262 28.1873 21.197 25.8232 15.8634 24.2772C10.5299 22.7318 2.78035 20.2768 2.78035 12.8205C2.78035 5.36472 9.66403 0 17.368 0C25.072 0 32.1373 5.13761 32.1373 5.13761Z" fill="#C4432D"/>
<path d="M88.3909 5.13761L83.3312 12.8205C83.3312 12.8205 78.8635 8.97905 73.9404 8.97905C69.0173 8.97905 69.2456 14.9575 72.5274 15.7302C75.8099 16.5035 89.1207 19.3218 89.1207 29.0055C89.1207 38.6891 79.1373 41.9174 73.9859 41.9174C68.8351 41.9174 58.5785 38.5983 56.2535 34.6427C57.5754 33.3698 63.2283 28.0051 63.2283 28.0051C63.2283 28.0051 68.8351 32.7334 73.3478 32.7334C77.861 32.7334 78.1798 29.7328 78.1798 28.9601C78.1798 28.1873 77.4505 25.8232 72.117 24.2772C66.784 22.7318 59.0344 20.2768 59.0344 12.8205C59.0344 5.36472 65.9176 0 73.6216 0C81.3256 0 88.3909 5.13761 88.3909 5.13761Z" fill="#C4432D"/>
<path d="M38.7017 40.5076H50.2802V0.954956H38.7017V40.5076Z" fill="#C4432D"/>
<path d="M95.6828 0.954956H120.025V10.4115H107.17V16.8669H120.754V25.1413H107.17V31.6427H122.441V41.0533H95.6828" fill="#C4432D"/>
<path d="M127.991 11.5476H138.111L144.367 21.0041L138.213 30.5399H127.991L134.418 21.044" fill="#211915"/>
<path d="M140.128 2.2052H154.693L167 21.044L154.488 39.576H140.128L152.436 20.9587" fill="#211915"/>
<path d="M0.18103 53.0949H0.629241V47.0815H0.18103V53.0949Z" fill="#211915"/>
<path d="M4.16833 47.0815H4.59044L8.75097 52.3133V47.0815H9.18197V53.0949H8.84595L4.59933 47.7512V53.0949H4.16833" fill="#211915"/>
<path d="M12.2728 52.2186L12.5655 51.8835C13.2286 52.4933 13.8401 52.7769 14.7277 52.7769C15.6318 52.7769 16.2522 52.2701 16.2522 51.5827V51.5655C16.2522 50.9302 15.9162 50.5602 14.5466 50.2854C13.0998 49.9935 12.5138 49.5038 12.5138 48.5932V48.576C12.5138 47.6825 13.3325 46.9951 14.4522 46.9951C15.3308 46.9951 15.9079 47.2361 16.5194 47.7257L16.235 48.0775C15.6663 47.5884 15.0981 47.3989 14.435 47.3989C13.5474 47.3989 12.962 47.9063 12.962 48.5334V48.5505C12.962 49.1859 13.2892 49.5725 14.7193 49.8644C16.1145 50.148 16.6999 50.646 16.6999 51.5229V51.54C16.6999 52.5105 15.8646 53.1808 14.7015 53.1808C13.7368 53.1808 12.9965 52.8628 12.2728 52.2186Z" fill="#211915"/>
<path d="M21.4025 47.4937H19.3003V47.0815H23.9523V47.4937H21.8501V53.0949H21.4025" fill="#211915"/>
<path d="M27.0604 53.0949H27.5086V47.0815H27.0604V53.0949Z" fill="#211915"/>
<path d="M32.7188 47.4937H30.6166V47.0815H35.2687V47.4937H33.1665V53.0949H32.7188" fill="#211915"/>
<path d="M38.2218 50.5951V47.0815H38.6695V50.5519C38.6695 51.9693 39.4365 52.7853 40.7111 52.7853C41.9347 52.7853 42.7184 52.0469 42.7184 50.5951V47.0815H43.1666V50.5435C43.1666 52.2701 42.1579 53.1891 40.6939 53.1891C39.2471 53.1891 38.2218 52.2784 38.2218 50.5951Z" fill="#211915"/>
<path d="M48.2213 47.4937H46.1191V47.0815H50.7711V47.4937H48.6689V53.0949H48.2213" fill="#211915"/>
<path d="M58.6773 50.1055V50.0877C58.6773 48.6021 57.5921 47.3818 56.1019 47.3818C54.6118 47.3818 53.5437 48.5844 53.5437 50.0711V50.0877C53.5437 51.5745 54.629 52.7942 56.1191 52.7942C57.6093 52.7942 58.6773 51.5916 58.6773 50.1055ZM53.0783 50.1055V50.0877C53.0783 48.447 54.293 46.978 56.1191 46.978C57.9453 46.978 59.1428 48.4299 59.1428 50.0711V50.0877C59.1428 51.729 57.9281 53.1974 56.1019 53.1974C54.2758 53.1974 53.0783 51.7456 53.0783 50.1055Z" fill="#211915"/>
<path d="M66.238 52.2186L66.5307 51.8835C67.1939 52.4933 67.8054 52.7769 68.6929 52.7769C69.5972 52.7769 70.2175 52.2701 70.2175 51.5827V51.5655C70.2175 50.9302 69.8815 50.5602 68.5119 50.2854C67.065 49.9935 66.4791 49.5038 66.4791 48.5932V48.576C66.4791 47.6825 67.2978 46.9951 68.4175 46.9951C69.2961 46.9951 69.8732 47.2361 70.4847 47.7257L70.2003 48.0775C69.6316 47.5884 69.0634 47.3989 68.4002 47.3989C67.5127 47.3989 66.9273 47.9063 66.9273 48.5334V48.5505C66.9273 49.1859 67.2544 49.5725 68.6846 49.8644C70.0798 50.148 70.6658 50.646 70.6658 51.5229V51.54C70.6658 52.5105 69.8299 53.1808 68.6668 53.1808C67.7021 53.1808 66.9617 52.8628 66.238 52.2186Z" fill="#211915"/>
<path d="M73.731 50.5951V47.0815H74.1787V50.5519C74.1787 51.9693 74.9451 52.7853 76.2203 52.7853C77.4433 52.7853 78.2276 52.0469 78.2276 50.5951V47.0815H78.6752V50.5435C78.6752 52.2701 77.6672 53.1891 76.2031 53.1891C74.7557 53.1891 73.731 52.2784 73.731 50.5951Z" fill="#211915"/>
<path d="M84.161 50.44C85.2807 50.44 86.0388 49.8561 86.0388 48.9627V48.9455C86.0388 47.9922 85.2979 47.4937 84.2126 47.4937H82.507V50.44H84.161ZM82.0593 47.0815H84.2471C85.5739 47.0815 86.4865 47.7595 86.4865 48.9195V48.9366C86.4865 50.2001 85.3929 50.8526 84.1349 50.8526H82.507V53.0949H82.0593" fill="#211915"/>
<path d="M89.5 47.0815H93.7899V47.4937H89.9482V49.8561H93.4023V50.2682H89.9482V52.6822H93.8333V53.0949H89.5" fill="#211915"/>
<path d="M99.439 50.1996C100.447 50.1996 101.197 49.6933 101.197 48.8253V48.8081C101.197 48.0005 100.559 47.4937 99.4651 47.4937H97.4062V50.1996H99.439ZM96.9586 47.0815H99.4912C100.232 47.0815 100.826 47.3131 101.188 47.6742C101.472 47.9573 101.645 48.3611 101.645 48.7904V48.8081C101.645 49.8129 100.895 50.389 99.8783 50.5264L101.868 53.0949H101.3L99.379 50.6034H97.4062V53.0949H96.9586" fill="#211915"/>
<path d="M104.934 53.0949H105.382V47.0815H104.934V53.0949Z" fill="#211915"/>
<path d="M114.253 50.1055V50.0877C114.253 48.6021 113.167 47.3818 111.678 47.3818C110.187 47.3818 109.119 48.5844 109.119 50.0711V50.0877C109.119 51.5745 110.204 52.7942 111.695 52.7942C113.185 52.7942 114.253 51.5916 114.253 50.1055ZM108.654 50.1055V50.0877C108.654 48.447 109.868 46.978 111.695 46.978C113.521 46.978 114.718 48.4299 114.718 50.0711V50.0877C114.718 51.729 113.503 53.1974 111.678 53.1974C109.851 53.1974 108.654 51.7456 108.654 50.1055Z" fill="#211915"/>
<path d="M120.41 50.1996C121.418 50.1996 122.167 49.6933 122.167 48.8253V48.8081C122.167 48.0005 121.53 47.4937 120.436 47.4937H118.378V50.1996H120.41ZM117.93 47.0815H120.462C121.203 47.0815 121.797 47.3131 122.159 47.6742C122.443 47.9573 122.615 48.3611 122.615 48.7904V48.8081C122.615 49.8129 121.866 50.389 120.849 50.5264L122.839 53.0949H122.271L120.35 50.6034H118.378V53.0949H117.93" fill="#211915"/>
</svg>
