<svg width="73" height="80" viewBox="0 0 73 97" fill="none" xmlns="http://www.w3.org/2000/svg">
<path d="M51.6742 20.4465C44.9129 13.8058 38.4988 7.33978 36.5914 0C34.684 7.33978 28.2699 13.8073 21.5086 20.4479C11.4536 30.5842 0.0122491 42.1181 0.0122491 59.4196C-0.508073 79.6922 15.6147 96.6445 35.7247 96.9944C55.8347 97.3443 72.651 81.2658 72.9981 60.9932V59.4203C73.1706 42.1181 61.7292 30.5842 51.6742 20.4472V20.4465ZM18.7352 62.7392C17.6953 64.1374 16.6553 65.7103 15.9611 67.2832C15.7872 67.4585 15.614 67.8077 15.2683 67.8077L15.0951 67.8062C14.2284 67.8062 13.3609 66.2334 13.3609 66.2334C13.187 65.8834 12.8406 65.3604 12.6681 65.0104L12.4942 64.662C10.2397 59.7673 12.1471 52.9528 12.1471 52.9528C13.0131 49.6332 14.5741 46.3114 16.4814 43.5156C17.6945 41.7674 19.0823 40.0207 20.4686 38.2725L22.2028 40.0207L30.3511 48.4095C30.6983 48.7595 30.6983 49.2825 30.3511 49.6325L21.8557 59.245L18.7345 62.7384L18.7352 62.7392ZM36.9385 86.8566C30.004 86.8566 24.2834 81.089 24.4558 74.0991C24.4558 70.9527 25.669 67.983 27.5771 65.7103C30.1779 62.5638 33.4716 59.4188 37.1124 55.2248C41.2729 59.7688 44.0469 62.7392 46.6478 66.2355C46.8218 66.4109 46.995 66.7601 47.1682 67.1093C48.5552 69.2059 49.4212 71.6533 49.4212 74.2752C49.5937 81.265 43.8737 86.8581 36.9385 86.8581V86.8566ZM60.6893 66.5833C60.5154 67.1086 59.9965 67.457 59.4762 67.6316L59.3023 67.6331C58.782 67.4578 58.4363 67.1086 58.0891 66.7594C55.8361 63.4398 53.4091 60.2933 50.6351 57.4968L47.3421 54.0019L36.2464 42.468C33.9934 40.3713 31.7389 37.924 29.6583 35.652C29.6583 35.4774 29.4851 35.4774 29.4851 35.4774C29.138 34.9529 28.7923 34.4291 28.6184 33.7292V33.3793C28.2713 31.4565 28.9655 29.5345 30.3526 28.1362C32.4324 26.0395 34.6869 23.7668 36.7668 21.4955C39.0198 23.9421 41.4468 26.3887 43.8752 28.8353C48.7291 33.3793 53.0635 38.4478 57.0507 43.8656C60.3436 48.5834 62.0778 54.0019 62.0778 59.7695C61.73 61.8662 61.3828 64.3128 60.69 66.584L60.6893 66.5833Z" fill="#FFC139"/>
</svg>
