<svg width="332" height="267" viewBox="0 0 332 267" fill="none" xmlns="http://www.w3.org/2000/svg">
<g filter="url(#filter0_d)">
<circle cx="162.5" cy="129.5" r="129.5" fill="#FFC139"/>
</g>
<path d="M56.3064 104.96H68.2964C70.9364 104.96 73.2647 105.382 75.2814 106.225C77.3347 107.032 78.9297 108.315 80.0664 110.075C81.203 111.835 81.7714 114.163 81.7714 117.06C81.7714 119.737 81.1664 121.973 79.9564 123.77C78.7464 125.567 77.133 126.923 75.1164 127.84C73.0997 128.72 70.8447 129.16 68.3514 129.16H62.2464V145H57.1314V108.59L56.3064 104.96ZM62.2464 108.755V125.42H68.2414C70.7714 125.42 72.7697 124.65 74.2364 123.11C75.703 121.57 76.4364 119.553 76.4364 117.06C76.4364 114.457 75.7397 112.422 74.3464 110.955C72.953 109.488 70.9364 108.755 68.2964 108.755H62.2464ZM91.6821 117.17C92.3421 118.783 92.7638 120.488 92.9471 122.285C93.9004 120.782 95.1838 119.553 96.7971 118.6C98.4104 117.647 100.115 117.17 101.912 117.17L100.812 122.01C99.0521 122.01 97.5488 122.468 96.3021 123.385C95.0921 124.302 94.0104 125.457 93.0571 126.85V145H88.4921V125.2C88.4921 124.137 88.3454 122.872 88.0521 121.405C87.7954 119.902 87.3554 118.692 86.7321 117.775L91.6821 117.17ZM117.787 145.715C115.11 145.715 112.855 145.055 111.022 143.735C109.225 142.378 107.869 140.618 106.952 138.455C106.072 136.292 105.632 133.982 105.632 131.525C105.632 129.068 106.109 126.74 107.062 124.54C108.052 122.303 109.482 120.488 111.352 119.095C113.222 117.702 115.477 117.005 118.117 117.005C120.83 117.005 123.085 117.665 124.882 118.985C126.715 120.305 128.072 122.047 128.952 124.21C129.869 126.373 130.327 128.702 130.327 131.195C130.327 133.688 129.85 136.053 128.897 138.29C127.944 140.49 126.532 142.287 124.662 143.68C122.792 145.037 120.5 145.715 117.787 145.715ZM117.842 142.25C119.272 142.25 120.464 141.92 121.417 141.26C122.407 140.563 123.195 139.665 123.782 138.565C124.405 137.465 124.845 136.292 125.102 135.045C125.359 133.762 125.487 132.533 125.487 131.36C125.487 130.15 125.359 128.922 125.102 127.675C124.882 126.392 124.497 125.218 123.947 124.155C123.397 123.055 122.627 122.175 121.637 121.515C120.684 120.818 119.492 120.47 118.062 120.47C116.632 120.47 115.422 120.818 114.432 121.515C113.479 122.175 112.709 123.055 112.122 124.155C111.535 125.255 111.114 126.447 110.857 127.73C110.6 128.977 110.472 130.187 110.472 131.36C110.472 132.497 110.6 133.707 110.857 134.99C111.114 136.237 111.517 137.41 112.067 138.51C112.654 139.61 113.424 140.508 114.377 141.205C115.33 141.902 116.485 142.25 117.842 142.25ZM137.557 117.665C138.364 119.938 139.152 122.212 139.922 124.485C140.729 126.758 141.536 129.087 142.342 131.47C142.746 132.717 143.149 133.982 143.552 135.265C143.992 136.512 144.414 137.758 144.817 139.005C145.221 137.722 145.624 136.457 146.027 135.21C146.467 133.963 146.889 132.717 147.292 131.47C148.099 129.087 148.887 126.758 149.657 124.485C150.464 122.212 151.271 119.938 152.077 117.665H156.367L146.687 145.11C146.284 146.247 145.771 147.493 145.147 148.85C144.524 150.243 143.791 151.545 142.947 152.755C142.104 153.965 141.114 154.955 139.977 155.725C138.841 156.532 137.557 156.935 136.127 156.935H134.037V153.25H134.642C136.182 153.25 137.447 152.792 138.437 151.875C139.464 150.958 140.307 149.84 140.967 148.52C141.627 147.237 142.177 145.99 142.617 144.78L132.607 117.665H137.557ZM171.075 117.005C174.375 117.005 176.868 117.995 178.555 119.975C180.278 121.918 181.14 124.485 181.14 127.675C181.14 128.188 181.103 128.72 181.03 129.27C180.993 129.783 180.938 130.333 180.865 130.92H163.485C163.485 134.403 164.255 137.098 165.795 139.005C167.335 140.912 169.388 141.865 171.955 141.865C174.045 141.865 176.355 141.205 178.885 139.885L180.59 142.635C179.306 143.662 177.858 144.432 176.245 144.945C174.631 145.458 173 145.715 171.35 145.715C168.49 145.715 166.106 145.037 164.2 143.68C162.33 142.323 160.936 140.563 160.02 138.4C159.103 136.237 158.645 133.982 158.645 131.635C158.645 129.802 158.901 128.023 159.415 126.3C159.928 124.577 160.698 123.018 161.725 121.625C162.788 120.195 164.09 119.077 165.63 118.27C167.17 117.427 168.985 117.005 171.075 117.005ZM170.635 120.47C169.388 120.47 168.288 120.818 167.335 121.515C166.381 122.212 165.611 123.11 165.025 124.21C164.438 125.273 164.035 126.373 163.815 127.51H176.355C176.428 125.237 175.951 123.495 174.925 122.285C173.898 121.075 172.468 120.47 170.635 120.47ZM198.472 117.005C199.866 117.005 201.259 117.243 202.652 117.72C204.082 118.16 205.476 118.857 206.832 119.81L204.357 123C203.331 122.157 202.322 121.552 201.332 121.185C200.342 120.782 199.389 120.58 198.472 120.58C197.006 120.58 195.686 121.02 194.512 121.9C193.339 122.78 192.404 124.027 191.707 125.64C191.047 127.253 190.717 129.142 190.717 131.305C190.717 134.752 191.487 137.392 193.027 139.225C194.604 141.058 196.584 141.975 198.967 141.975C200.031 141.975 201.057 141.81 202.047 141.48C203.074 141.15 204.137 140.673 205.237 140.05L206.722 142.965C205.256 143.882 203.844 144.56 202.487 145C201.131 145.477 199.609 145.715 197.922 145.715C195.576 145.715 193.486 145.128 191.652 143.955C189.856 142.745 188.426 141.04 187.362 138.84C186.336 136.64 185.822 134.055 185.822 131.085C185.822 128.225 186.391 125.75 187.527 123.66C188.701 121.533 190.241 119.902 192.147 118.765C194.091 117.592 196.199 117.005 198.472 117.005ZM220.072 109.855C219.816 111.102 219.577 112.403 219.357 113.76C219.174 115.08 219.046 116.382 218.972 117.665H226.122L225.187 121.13H218.972V138.62C218.972 139.683 219.156 140.527 219.522 141.15C219.926 141.773 220.714 142.085 221.887 142.085C222.474 142.085 223.061 142.03 223.647 141.92C224.234 141.81 224.802 141.682 225.352 141.535L226.122 144.615C225.206 144.872 224.326 145.092 223.482 145.275C222.676 145.495 221.741 145.605 220.677 145.605C218.331 145.605 216.699 144.982 215.782 143.735C214.866 142.488 214.407 140.747 214.407 138.51V121.13H210.337V118.38C211.804 118.343 212.959 117.867 213.802 116.95C214.646 115.997 215.287 114.86 215.727 113.54C216.167 112.22 216.497 110.992 216.717 109.855H220.072ZM241 145.715C238.323 145.715 236.068 145.055 234.235 143.735C232.438 142.378 231.081 140.618 230.165 138.455C229.285 136.292 228.845 133.982 228.845 131.525C228.845 129.068 229.321 126.74 230.275 124.54C231.265 122.303 232.695 120.488 234.565 119.095C236.435 117.702 238.69 117.005 241.33 117.005C244.043 117.005 246.298 117.665 248.095 118.985C249.928 120.305 251.285 122.047 252.165 124.21C253.081 126.373 253.54 128.702 253.54 131.195C253.54 133.688 253.063 136.053 252.11 138.29C251.156 140.49 249.745 142.287 247.875 143.68C246.005 145.037 243.713 145.715 241 145.715ZM241.055 142.25C242.485 142.25 243.676 141.92 244.63 141.26C245.62 140.563 246.408 139.665 246.995 138.565C247.618 137.465 248.058 136.292 248.315 135.045C248.571 133.762 248.7 132.533 248.7 131.36C248.7 130.15 248.571 128.922 248.315 127.675C248.095 126.392 247.71 125.218 247.16 124.155C246.61 123.055 245.84 122.175 244.85 121.515C243.896 120.818 242.705 120.47 241.275 120.47C239.845 120.47 238.635 120.818 237.645 121.515C236.691 122.175 235.921 123.055 235.335 124.155C234.748 125.255 234.326 126.447 234.07 127.73C233.813 128.977 233.685 130.187 233.685 131.36C233.685 132.497 233.813 133.707 234.07 134.99C234.326 136.237 234.73 137.41 235.28 138.51C235.866 139.61 236.636 140.508 237.59 141.205C238.543 141.902 239.698 142.25 241.055 142.25ZM269.386 117.005C270.632 117.005 271.861 117.17 273.071 117.5C274.317 117.793 275.454 118.27 276.481 118.93L274.886 122.45C274.079 121.79 273.181 121.295 272.191 120.965C271.201 120.635 270.229 120.47 269.276 120.47C267.919 120.47 266.727 120.782 265.701 121.405C264.711 122.028 264.216 122.963 264.216 124.21C264.216 125.567 264.656 126.575 265.536 127.235C266.452 127.895 267.534 128.518 268.781 129.105C269.991 129.655 271.201 130.278 272.411 130.975C273.657 131.635 274.702 132.497 275.546 133.56C276.389 134.587 276.811 135.98 276.811 137.74C276.811 139.573 276.352 141.095 275.436 142.305C274.556 143.478 273.382 144.34 271.916 144.89C270.486 145.44 268.927 145.715 267.241 145.715C265.774 145.715 264.307 145.513 262.841 145.11C261.374 144.707 260.017 144.138 258.771 143.405L260.696 140.05C261.576 140.71 262.566 141.242 263.666 141.645C264.766 142.048 265.829 142.25 266.856 142.25C268.249 142.25 269.459 141.92 270.486 141.26C271.549 140.6 272.081 139.61 272.081 138.29C272.081 137.373 271.787 136.622 271.201 136.035C270.651 135.412 269.936 134.862 269.056 134.385C268.176 133.908 267.259 133.45 266.306 133.01C265.206 132.46 264.124 131.873 263.061 131.25C262.034 130.59 261.191 129.765 260.531 128.775C259.871 127.785 259.541 126.52 259.541 124.98C259.541 123.22 259.999 121.753 260.916 120.58C261.869 119.407 263.097 118.527 264.601 117.94C266.104 117.317 267.699 117.005 269.386 117.005Z" fill="white"/>
<defs>
<filter id="filter0_d" x="29" y="0" width="267" height="267" filterUnits="userSpaceOnUse" color-interpolation-filters="sRGB">
<feFlood flood-opacity="0" result="BackgroundImageFix"/>
<feColorMatrix in="SourceAlpha" type="matrix" values="0 0 0 0 0 0 0 0 0 0 0 0 0 0 0 0 0 0 127 0" result="hardAlpha"/>
<feOffset dy="4"/>
<feGaussianBlur stdDeviation="2"/>
<feComposite in2="hardAlpha" operator="out"/>
<feColorMatrix type="matrix" values="0 0 0 0 0 0 0 0 0 0 0 0 0 0 0 0 0 0 0.25 0"/>
<feBlend mode="normal" in2="BackgroundImageFix" result="effect1_dropShadow"/>
<feBlend mode="normal" in="SourceGraphic" in2="effect1_dropShadow" result="shape"/>
</filter>
</defs>
</svg>
