<svg width="175" height="30" viewBox="0 0 175 175" fill="none" xmlns="http://www.w3.org/2000/svg">
<g filter="url(#filter0_d)">
<circle cx="87.5" cy="83.5" r="83.5" fill="#FFC139"/>
</g>
<path d="M48.5494 70.576C50.1494 70.576 51.7014 70.8 53.2054 71.248C54.7414 71.696 56.1974 72.336 57.5734 73.168L55.3654 76.384C54.3734 75.648 53.2854 75.072 52.1014 74.656C50.9494 74.208 49.7494 73.984 48.5014 73.984C46.8054 73.984 45.3654 74.416 44.1814 75.28C42.9974 76.112 42.4054 77.456 42.4054 79.312C42.4054 80.336 42.6774 81.216 43.2214 81.952C43.7974 82.656 44.5494 83.28 45.4774 83.824C46.4054 84.368 47.4134 84.896 48.5014 85.408C49.6214 85.92 50.7574 86.48 51.9094 87.088C53.0934 87.696 54.1654 88.416 55.1254 89.248C56.1174 90.048 56.9014 91.04 57.4774 92.224C58.0854 93.376 58.3894 94.8 58.3894 96.496C58.3894 98.8 57.8294 100.704 56.7094 102.208C55.5894 103.68 54.1174 104.784 52.2934 105.52C50.4694 106.224 48.5014 106.576 46.3894 106.576C44.6614 106.576 42.9814 106.352 41.3494 105.904C39.7494 105.424 38.1814 104.784 36.6454 103.984L38.3734 100.048C39.4294 100.944 40.7094 101.68 42.2134 102.256C43.7174 102.832 45.1574 103.12 46.5334 103.12C47.5894 103.12 48.6614 102.928 49.7494 102.544C50.8374 102.128 51.7494 101.472 52.4854 100.576C53.2214 99.68 53.5894 98.528 53.5894 97.12C53.5894 95.712 53.2534 94.56 52.5814 93.664C51.9094 92.736 51.0294 91.968 49.9414 91.36C48.8534 90.72 47.7014 90.112 46.4854 89.536C45.4294 89.024 44.3734 88.496 43.3174 87.952C42.2614 87.408 41.3014 86.768 40.4374 86.032C39.5734 85.296 38.8854 84.416 38.3734 83.392C37.8614 82.368 37.6054 81.136 37.6054 79.696C37.6054 77.68 38.1334 76 39.1894 74.656C40.2774 73.312 41.6534 72.304 43.3174 71.632C45.0134 70.928 46.7574 70.576 48.5494 70.576ZM67.7314 69.424V91.984L76.6594 82.144H80.9314L71.7634 92.176L82.2274 106H77.4754L67.7314 93.04V106H63.7474V72.256L63.1234 69.424H67.7314ZM91.005 74.128C91.005 74.928 90.717 75.616 90.141 76.192C89.597 76.768 88.909 77.056 88.077 77.056C87.277 77.056 86.589 76.768 86.013 76.192C85.469 75.616 85.197 74.928 85.197 74.128C85.197 73.328 85.469 72.64 86.013 72.064C86.589 71.488 87.277 71.2 88.077 71.2C88.877 71.2 89.565 71.488 90.141 72.064C90.717 72.64 91.005 73.328 91.005 74.128ZM90.141 82.144V106H86.157V84.976L85.581 82.144H90.141ZM102.188 69.424V106H98.2039V72.208L97.5799 69.424H102.188ZM114.235 69.424V106H110.251V72.208L109.627 69.424H114.235ZM129.978 81.568C131.066 81.568 132.138 81.712 133.194 82C134.282 82.256 135.274 82.672 136.17 83.248L134.778 86.32C134.074 85.744 133.29 85.312 132.426 85.024C131.562 84.736 130.714 84.592 129.882 84.592C128.698 84.592 127.658 84.864 126.762 85.408C125.898 85.952 125.466 86.768 125.466 87.856C125.466 89.04 125.85 89.92 126.618 90.496C127.418 91.072 128.362 91.616 129.45 92.128C130.506 92.608 131.562 93.152 132.618 93.76C133.706 94.336 134.618 95.088 135.354 96.016C136.09 96.912 136.458 98.128 136.458 99.664C136.458 101.264 136.058 102.592 135.258 103.648C134.49 104.672 133.466 105.424 132.186 105.904C130.938 106.384 129.578 106.624 128.106 106.624C126.826 106.624 125.546 106.448 124.266 106.096C122.986 105.744 121.802 105.248 120.714 104.608L122.394 101.68C123.162 102.256 124.026 102.72 124.986 103.072C125.946 103.424 126.874 103.6 127.77 103.6C128.986 103.6 130.042 103.312 130.938 102.736C131.866 102.16 132.33 101.296 132.33 100.144C132.33 99.344 132.074 98.688 131.562 98.176C131.082 97.632 130.458 97.152 129.69 96.736C128.922 96.32 128.122 95.92 127.29 95.536C126.33 95.056 125.386 94.544 124.458 94C123.562 93.424 122.826 92.704 122.25 91.84C121.674 90.976 121.386 89.872 121.386 88.528C121.386 86.992 121.786 85.712 122.586 84.688C123.418 83.664 124.49 82.896 125.802 82.384C127.114 81.84 128.506 81.568 129.978 81.568Z" fill="white"/>
<defs>
<filter id="filter0_d" x="0" y="0" width="175" height="175" filterUnits="userSpaceOnUse" color-interpolation-filters="sRGB">
<feFlood flood-opacity="0" result="BackgroundImageFix"/>
<feColorMatrix in="SourceAlpha" type="matrix" values="0 0 0 0 0 0 0 0 0 0 0 0 0 0 0 0 0 0 127 0" result="hardAlpha"/>
<feOffset dy="4"/>
<feGaussianBlur stdDeviation="2"/>
<feComposite in2="hardAlpha" operator="out"/>
<feColorMatrix type="matrix" values="0 0 0 0 0 0 0 0 0 0 0 0 0 0 0 0 0 0 0.25 0"/>
<feBlend mode="normal" in2="BackgroundImageFix" result="effect1_dropShadow"/>
<feBlend mode="normal" in="SourceGraphic" in2="effect1_dropShadow" result="shape"/>
</filter>
</defs>
</svg>
