<svg width="100" height="30" viewBox="0 0 145 145" fill="none" xmlns="http://www.w3.org/2000/svg">
<g filter="url(#filter0_d)">
<circle cx="72.5" cy="68.5" r="68.5" fill="#FFC139"/>
</g>
<path d="M11.0687 55.616H22.3527V57.548H14.0647V64.576H20.6447V66.48H14.0647V76H11.4607V57.464L11.0687 55.616ZM28.9141 76.364C27.5515 76.364 26.4035 76.028 25.4701 75.356C24.5555 74.6653 23.8648 73.7693 23.3981 72.668C22.9501 71.5667 22.7261 70.3907 22.7261 69.14C22.7261 67.8893 22.9688 66.704 23.4541 65.584C23.9581 64.4453 24.6861 63.5213 25.6381 62.812C26.5901 62.1027 27.7381 61.748 29.0821 61.748C30.4635 61.748 31.6115 62.084 32.5261 62.756C33.4595 63.428 34.1501 64.3147 34.5981 65.416C35.0648 66.5173 35.2981 67.7027 35.2981 68.972C35.2981 70.2413 35.0555 71.4453 34.5701 72.584C34.0848 73.704 33.3661 74.6187 32.4141 75.328C31.4621 76.0187 30.2955 76.364 28.9141 76.364ZM28.9421 74.6C29.6701 74.6 30.2768 74.432 30.7621 74.096C31.2661 73.7413 31.6675 73.284 31.9661 72.724C32.2835 72.164 32.5075 71.5667 32.6381 70.932C32.7688 70.2787 32.8341 69.6533 32.8341 69.056C32.8341 68.44 32.7688 67.8147 32.6381 67.18C32.5261 66.5267 32.3301 65.9293 32.0501 65.388C31.7701 64.828 31.3781 64.38 30.8741 64.044C30.3888 63.6893 29.7821 63.512 29.0541 63.512C28.3261 63.512 27.7101 63.6893 27.2061 64.044C26.7208 64.38 26.3288 64.828 26.0301 65.388C25.7315 65.948 25.5168 66.5547 25.3861 67.208C25.2555 67.8427 25.1901 68.4587 25.1901 69.056C25.1901 69.6347 25.2555 70.2507 25.3861 70.904C25.5168 71.5387 25.7221 72.136 26.0021 72.696C26.3008 73.256 26.6928 73.7133 27.1781 74.068C27.6635 74.4227 28.2515 74.6 28.9421 74.6ZM40.2338 61.832C40.5698 62.6533 40.7845 63.5213 40.8778 64.436C41.3631 63.6707 42.0165 63.0453 42.8378 62.56C43.6591 62.0747 44.5271 61.832 45.4418 61.832L44.8818 64.296C43.9858 64.296 43.2205 64.5293 42.5858 64.996C41.9698 65.4627 41.4191 66.0507 40.9338 66.76V76H38.6098V65.92C38.6098 65.3787 38.5351 64.7347 38.3858 63.988C38.2551 63.2227 38.0311 62.6067 37.7138 62.14L40.2338 61.832ZM49.9955 61.888C50.2568 62.5227 50.4342 63.1667 50.5275 63.82C51.0315 63.3347 51.6475 62.868 52.3755 62.42C53.1035 61.972 53.8408 61.748 54.5875 61.748C55.4835 61.748 56.2488 61.9347 56.8835 62.308C57.5182 62.6627 58.0315 63.2507 58.4235 64.072C58.9835 63.512 59.6462 62.9893 60.4115 62.504C61.1769 62 61.9609 61.748 62.7635 61.748C64.3128 61.748 65.4048 62.2147 66.0395 63.148C66.6928 64.0813 67.0195 65.2667 67.0195 66.704V76H64.6955V67.46C64.6955 66.9 64.6488 66.34 64.5555 65.78C64.4808 65.22 64.2755 64.7533 63.9395 64.38C63.6222 64.0067 63.0995 63.82 62.3715 63.82C61.7182 63.82 61.0742 64.0347 60.4395 64.464C59.8048 64.8747 59.2728 65.2947 58.8435 65.724V76H56.5195V67.46C56.5195 66.8813 56.4728 66.3213 56.3795 65.78C56.3048 65.22 56.0995 64.7533 55.7635 64.38C55.4462 64.0067 54.9235 63.82 54.1955 63.82C53.7848 63.82 53.3648 63.9227 52.9355 64.128C52.5062 64.3147 52.0955 64.5573 51.7035 64.856C51.3115 65.136 50.9662 65.4067 50.6675 65.668V76H48.3435V65.892C48.3435 65.3133 48.2688 64.6787 48.1195 63.988C47.9888 63.2787 47.7648 62.672 47.4475 62.168L49.9955 61.888ZM76.4024 61.748C77.877 61.748 78.9877 62.1493 79.7344 62.952C80.481 63.7547 80.8544 64.884 80.8544 66.34V73.312C80.8544 73.704 80.929 73.9747 81.0784 74.124C81.2277 74.2547 81.405 74.32 81.6104 74.32C81.7784 74.32 81.9557 74.3013 82.1424 74.264C82.329 74.208 82.5064 74.1427 82.6744 74.068L83.1784 75.58C82.8797 75.748 82.497 75.8973 82.0304 76.028C81.5824 76.1773 81.1157 76.252 80.6304 76.252C80.145 76.252 79.7064 76.1213 79.3144 75.86C78.9224 75.58 78.6797 75.076 78.5864 74.348C78.045 74.9267 77.4104 75.4027 76.6824 75.776C75.9544 76.1307 75.189 76.308 74.3864 76.308C73.285 76.308 72.3704 75.9813 71.6424 75.328C70.9144 74.6747 70.5504 73.7787 70.5504 72.64C70.5504 71.576 70.8024 70.7267 71.3064 70.092C71.829 69.4573 72.501 68.9813 73.3224 68.664C74.1437 68.3467 75.0117 68.132 75.9264 68.02C76.8597 67.908 77.7277 67.852 78.5304 67.852V66.368C78.5304 65.584 78.3717 64.9213 78.0544 64.38C77.737 63.8387 77.121 63.568 76.2064 63.568C75.497 63.568 74.8157 63.708 74.1624 63.988C73.509 64.268 72.8557 64.6787 72.2024 65.22L71.0544 63.568C71.8197 62.952 72.6597 62.4947 73.5744 62.196C74.489 61.8973 75.4317 61.748 76.4024 61.748ZM78.5304 69.672C78.0264 69.672 77.457 69.7 76.8224 69.756C76.1877 69.7933 75.5717 69.9053 74.9744 70.092C74.377 70.26 73.8824 70.54 73.4904 70.932C73.117 71.324 72.9304 71.8653 72.9304 72.556C72.9304 73.172 73.1357 73.6293 73.5464 73.928C73.9757 74.208 74.5077 74.348 75.1424 74.348C75.8144 74.348 76.4024 74.1613 76.9064 73.788C77.4104 73.4147 77.8024 72.9387 78.0824 72.36C78.381 71.7813 78.5304 71.184 78.5304 70.568V69.672ZM90.8263 61.748C91.5356 61.748 92.245 61.8693 92.9543 62.112C93.6823 62.336 94.3916 62.6907 95.0823 63.176L93.8223 64.8C93.2996 64.3707 92.7863 64.0627 92.2823 63.876C91.7783 63.6707 91.293 63.568 90.8263 63.568C90.0796 63.568 89.4076 63.792 88.8103 64.24C88.213 64.688 87.737 65.3227 87.3823 66.144C87.0463 66.9653 86.8783 67.9267 86.8783 69.028C86.8783 70.7827 87.2703 72.1267 88.0543 73.06C88.857 73.9933 89.865 74.46 91.0783 74.46C91.6196 74.46 92.1423 74.376 92.6463 74.208C93.169 74.04 93.7103 73.7973 94.2703 73.48L95.0263 74.964C94.2796 75.4307 93.561 75.776 92.8703 76C92.1796 76.2427 91.405 76.364 90.5463 76.364C89.3516 76.364 88.2876 76.0653 87.3543 75.468C86.4396 74.852 85.7116 73.984 85.1703 72.864C84.6476 71.744 84.3863 70.428 84.3863 68.916C84.3863 67.46 84.6756 66.2 85.2543 65.136C85.8516 64.0533 86.6356 63.2227 87.6063 62.644C88.5956 62.0467 89.669 61.748 90.8263 61.748ZM100.94 57.408C100.94 57.8747 100.772 58.276 100.436 58.612C100.118 58.948 99.7171 59.116 99.2318 59.116C98.7651 59.116 98.3638 58.948 98.0278 58.612C97.7104 58.276 97.5518 57.8747 97.5518 57.408C97.5518 56.9413 97.7104 56.54 98.0278 56.204C98.3638 55.868 98.7651 55.7 99.2318 55.7C99.6984 55.7 100.1 55.868 100.436 56.204C100.772 56.54 100.94 56.9413 100.94 57.408ZM100.436 62.084V76H98.1118V63.736L97.7758 62.084H100.436ZM110.207 76.364C108.844 76.364 107.696 76.028 106.763 75.356C105.848 74.6653 105.158 73.7693 104.691 72.668C104.243 71.5667 104.019 70.3907 104.019 69.14C104.019 67.8893 104.262 66.704 104.747 65.584C105.251 64.4453 105.979 63.5213 106.931 62.812C107.883 62.1027 109.031 61.748 110.375 61.748C111.756 61.748 112.904 62.084 113.819 62.756C114.752 63.428 115.443 64.3147 115.891 65.416C116.358 66.5173 116.591 67.7027 116.591 68.972C116.591 70.2413 116.348 71.4453 115.863 72.584C115.378 73.704 114.659 74.6187 113.707 75.328C112.755 76.0187 111.588 76.364 110.207 76.364ZM110.235 74.6C110.963 74.6 111.57 74.432 112.055 74.096C112.559 73.7413 112.96 73.284 113.259 72.724C113.576 72.164 113.8 71.5667 113.931 70.932C114.062 70.2787 114.127 69.6533 114.127 69.056C114.127 68.44 114.062 67.8147 113.931 67.18C113.819 66.5267 113.623 65.9293 113.343 65.388C113.063 64.828 112.671 64.38 112.167 64.044C111.682 63.6893 111.075 63.512 110.347 63.512C109.619 63.512 109.003 63.6893 108.499 64.044C108.014 64.38 107.622 64.828 107.323 65.388C107.024 65.948 106.81 66.5547 106.679 67.208C106.548 67.8427 106.483 68.4587 106.483 69.056C106.483 69.6347 106.548 70.2507 106.679 70.904C106.81 71.5387 107.015 72.136 107.295 72.696C107.594 73.256 107.986 73.7133 108.471 74.068C108.956 74.4227 109.544 74.6 110.235 74.6ZM111.719 55.476H115.135L111.215 59.732H109.031L111.719 55.476ZM121.499 61.86C121.629 62.1773 121.741 62.504 121.835 62.84C121.928 63.176 121.993 63.512 122.031 63.848C122.591 63.288 123.253 62.8027 124.019 62.392C124.784 61.9627 125.568 61.748 126.371 61.748C127.92 61.748 129.012 62.2147 129.647 63.148C130.3 64.0813 130.627 65.2667 130.627 66.704V76H128.331V67.46C128.331 66.8813 128.284 66.312 128.191 65.752C128.116 65.192 127.911 64.7347 127.575 64.38C127.257 64.0067 126.725 63.82 125.979 63.82C125.288 63.82 124.597 64.016 123.907 64.408C123.235 64.7813 122.656 65.2013 122.171 65.668V76H119.875V66.144C119.875 65.7707 119.847 65.3413 119.791 64.856C119.735 64.352 119.641 63.8667 119.511 63.4C119.38 62.9147 119.193 62.5133 118.951 62.196L121.499 61.86Z" fill="white"/>
<defs>
<filter id="filter0_d" x="0" y="0" width="145" height="145" filterUnits="userSpaceOnUse" color-interpolation-filters="sRGB">
<feFlood flood-opacity="0" result="BackgroundImageFix"/>
<feColorMatrix in="SourceAlpha" type="matrix" values="0 0 0 0 0 0 0 0 0 0 0 0 0 0 0 0 0 0 127 0" result="hardAlpha"/>
<feOffset dy="4"/>
<feGaussianBlur stdDeviation="2"/>
<feComposite in2="hardAlpha" operator="out"/>
<feColorMatrix type="matrix" values="0 0 0 0 0 0 0 0 0 0 0 0 0 0 0 0 0 0 0.25 0"/>
<feBlend mode="normal" in2="BackgroundImageFix" result="effect1_dropShadow"/>
<feBlend mode="normal" in="SourceGraphic" in2="effect1_dropShadow" result="shape"/>
</filter>
</defs>
</svg>
