<svg width="332" height="267" viewBox="0 0 332 267" fill="none" xmlns="http://www.w3.org/2000/svg">
<g filter="url(#filter0_d)">
<circle cx="162.5" cy="129.5" r="129.5" fill="white"/>
</g>
<path d="M78.0602 104.41C79.8935 104.41 81.6718 104.667 83.3952 105.18C85.1552 105.693 86.8235 106.427 88.4002 107.38L85.8702 111.065C84.7335 110.222 83.4868 109.562 82.1302 109.085C80.8102 108.572 79.4352 108.315 78.0052 108.315C76.0618 108.315 74.4118 108.81 73.0552 109.8C71.6985 110.753 71.0202 112.293 71.0202 114.42C71.0202 115.593 71.3318 116.602 71.9552 117.445C72.6152 118.252 73.4768 118.967 74.5402 119.59C75.6035 120.213 76.7585 120.818 78.0052 121.405C79.2885 121.992 80.5902 122.633 81.9102 123.33C83.2668 124.027 84.4952 124.852 85.5952 125.805C86.7318 126.722 87.6302 127.858 88.2902 129.215C88.9868 130.535 89.3352 132.167 89.3352 134.11C89.3352 136.75 88.6935 138.932 87.4102 140.655C86.1268 142.342 84.4402 143.607 82.3502 144.45C80.2602 145.257 78.0052 145.66 75.5852 145.66C73.6052 145.66 71.6802 145.403 69.8102 144.89C67.9768 144.34 66.1802 143.607 64.4202 142.69L66.4002 138.18C67.6102 139.207 69.0768 140.05 70.8002 140.71C72.5235 141.37 74.1735 141.7 75.7502 141.7C76.9602 141.7 78.1885 141.48 79.4352 141.04C80.6818 140.563 81.7268 139.812 82.5702 138.785C83.4135 137.758 83.8352 136.438 83.8352 134.825C83.8352 133.212 83.4502 131.892 82.6802 130.865C81.9102 129.802 80.9018 128.922 79.6552 128.225C78.4085 127.492 77.0885 126.795 75.6952 126.135C74.4852 125.548 73.2752 124.943 72.0652 124.32C70.8552 123.697 69.7552 122.963 68.7652 122.12C67.7752 121.277 66.9868 120.268 66.4002 119.095C65.8135 117.922 65.5202 116.51 65.5202 114.86C65.5202 112.55 66.1252 110.625 67.3352 109.085C68.5818 107.545 70.1585 106.39 72.0652 105.62C74.0085 104.813 76.0068 104.41 78.0602 104.41ZM105.87 117.005C109.17 117.005 111.663 117.995 113.35 119.975C115.073 121.918 115.935 124.485 115.935 127.675C115.935 128.188 115.898 128.72 115.825 129.27C115.788 129.783 115.733 130.333 115.66 130.92H98.2795C98.2795 134.403 99.0495 137.098 100.59 139.005C102.13 140.912 104.183 141.865 106.75 141.865C108.84 141.865 111.15 141.205 113.68 139.885L115.385 142.635C114.101 143.662 112.653 144.432 111.04 144.945C109.426 145.458 107.795 145.715 106.145 145.715C103.285 145.715 100.901 145.037 98.9945 143.68C97.1245 142.323 95.7312 140.563 94.8145 138.4C93.8979 136.237 93.4395 133.982 93.4395 131.635C93.4395 129.802 93.6962 128.023 94.2095 126.3C94.7229 124.577 95.4929 123.018 96.5195 121.625C97.5829 120.195 98.8845 119.077 100.425 118.27C101.965 117.427 103.78 117.005 105.87 117.005ZM105.43 120.47C104.183 120.47 103.083 120.818 102.13 121.515C101.176 122.212 100.406 123.11 99.8195 124.21C99.2329 125.273 98.8295 126.373 98.6095 127.51H111.15C111.223 125.237 110.746 123.495 109.72 122.285C108.693 121.075 107.263 120.47 105.43 120.47ZM125.842 117.17C126.502 118.783 126.924 120.488 127.107 122.285C128.061 120.782 129.344 119.553 130.957 118.6C132.571 117.647 134.276 117.17 136.072 117.17L134.972 122.01C133.212 122.01 131.709 122.468 130.462 123.385C129.252 124.302 128.171 125.457 127.217 126.85V145H122.652V125.2C122.652 124.137 122.506 122.872 122.212 121.405C121.956 119.902 121.516 118.692 120.892 117.775L125.842 117.17ZM144.269 117.665L150.209 134.605C150.465 135.302 150.704 135.98 150.924 136.64C151.144 137.3 151.364 138.088 151.584 139.005C151.804 138.125 152.005 137.373 152.189 136.75C152.409 136.09 152.629 135.448 152.849 134.825L158.844 117.665H163.134L153.344 145.33H149.164L139.429 117.665H144.269ZM173.973 108.48C173.973 109.397 173.643 110.185 172.983 110.845C172.36 111.505 171.571 111.835 170.618 111.835C169.701 111.835 168.913 111.505 168.253 110.845C167.63 110.185 167.318 109.397 167.318 108.48C167.318 107.563 167.63 106.775 168.253 106.115C168.913 105.455 169.701 105.125 170.618 105.125C171.535 105.125 172.323 105.455 172.983 106.115C173.643 106.775 173.973 107.563 173.973 108.48ZM172.983 117.665V145H168.418V120.91L167.758 117.665H172.983ZM192.672 117.005C194.065 117.005 195.458 117.243 196.852 117.72C198.282 118.16 199.675 118.857 201.032 119.81L198.557 123C197.53 122.157 196.522 121.552 195.532 121.185C194.542 120.782 193.588 120.58 192.672 120.58C191.205 120.58 189.885 121.02 188.712 121.9C187.538 122.78 186.603 124.027 185.907 125.64C185.247 127.253 184.917 129.142 184.917 131.305C184.917 134.752 185.687 137.392 187.227 139.225C188.803 141.058 190.783 141.975 193.167 141.975C194.23 141.975 195.257 141.81 196.247 141.48C197.273 141.15 198.337 140.673 199.437 140.05L200.922 142.965C199.455 143.882 198.043 144.56 196.687 145C195.33 145.477 193.808 145.715 192.122 145.715C189.775 145.715 187.685 145.128 185.852 143.955C184.055 142.745 182.625 141.04 181.562 138.84C180.535 136.64 180.022 134.055 180.022 131.085C180.022 128.225 180.59 125.75 181.727 123.66C182.9 121.533 184.44 119.902 186.347 118.765C188.29 117.592 190.398 117.005 192.672 117.005ZM212.537 108.48C212.537 109.397 212.207 110.185 211.547 110.845C210.924 111.505 210.136 111.835 209.182 111.835C208.266 111.835 207.477 111.505 206.817 110.845C206.194 110.185 205.882 109.397 205.882 108.48C205.882 107.563 206.194 106.775 206.817 106.115C207.477 105.455 208.266 105.125 209.182 105.125C210.099 105.125 210.887 105.455 211.547 106.115C212.207 106.775 212.537 107.563 212.537 108.48ZM211.547 117.665V145H206.982V120.91L206.322 117.665H211.547ZM230.741 145.715C228.064 145.715 225.809 145.055 223.976 143.735C222.179 142.378 220.823 140.618 219.906 138.455C219.026 136.292 218.586 133.982 218.586 131.525C218.586 129.068 219.063 126.74 220.016 124.54C221.006 122.303 222.436 120.488 224.306 119.095C226.176 117.702 228.431 117.005 231.071 117.005C233.784 117.005 236.039 117.665 237.836 118.985C239.669 120.305 241.026 122.047 241.906 124.21C242.823 126.373 243.281 128.702 243.281 131.195C243.281 133.688 242.804 136.053 241.851 138.29C240.898 140.49 239.486 142.287 237.616 143.68C235.746 145.037 233.454 145.715 230.741 145.715ZM230.796 142.25C232.226 142.25 233.418 141.92 234.371 141.26C235.361 140.563 236.149 139.665 236.736 138.565C237.359 137.465 237.799 136.292 238.056 135.045C238.313 133.762 238.441 132.533 238.441 131.36C238.441 130.15 238.313 128.922 238.056 127.675C237.836 126.392 237.451 125.218 236.901 124.155C236.351 123.055 235.581 122.175 234.591 121.515C233.638 120.818 232.446 120.47 231.016 120.47C229.586 120.47 228.376 120.818 227.386 121.515C226.433 122.175 225.663 123.055 225.076 124.155C224.489 125.255 224.068 126.447 223.811 127.73C223.554 128.977 223.426 130.187 223.426 131.36C223.426 132.497 223.554 133.707 223.811 134.99C224.068 136.237 224.471 137.41 225.021 138.51C225.608 139.61 226.378 140.508 227.331 141.205C228.284 141.902 229.439 142.25 230.796 142.25ZM259.127 117.005C260.374 117.005 261.602 117.17 262.812 117.5C264.059 117.793 265.195 118.27 266.222 118.93L264.627 122.45C263.82 121.79 262.922 121.295 261.932 120.965C260.942 120.635 259.97 120.47 259.017 120.47C257.66 120.47 256.469 120.782 255.442 121.405C254.452 122.028 253.957 122.963 253.957 124.21C253.957 125.567 254.397 126.575 255.277 127.235C256.194 127.895 257.275 128.518 258.522 129.105C259.732 129.655 260.942 130.278 262.152 130.975C263.399 131.635 264.444 132.497 265.287 133.56C266.13 134.587 266.552 135.98 266.552 137.74C266.552 139.573 266.094 141.095 265.177 142.305C264.297 143.478 263.124 144.34 261.657 144.89C260.227 145.44 258.669 145.715 256.982 145.715C255.515 145.715 254.049 145.513 252.582 145.11C251.115 144.707 249.759 144.138 248.512 143.405L250.437 140.05C251.317 140.71 252.307 141.242 253.407 141.645C254.507 142.048 255.57 142.25 256.597 142.25C257.99 142.25 259.2 141.92 260.227 141.26C261.29 140.6 261.822 139.61 261.822 138.29C261.822 137.373 261.529 136.622 260.942 136.035C260.392 135.412 259.677 134.862 258.797 134.385C257.917 133.908 257 133.45 256.047 133.01C254.947 132.46 253.865 131.873 252.802 131.25C251.775 130.59 250.932 129.765 250.272 128.775C249.612 127.785 249.282 126.52 249.282 124.98C249.282 123.22 249.74 121.753 250.657 120.58C251.61 119.407 252.839 118.527 254.342 117.94C255.845 117.317 257.44 117.005 259.127 117.005Z" fill="#FFC139"/>
<defs>
<filter id="filter0_d" x="29" y="0" width="267" height="267" filterUnits="userSpaceOnUse" color-interpolation-filters="sRGB">
<feFlood flood-opacity="0" result="BackgroundImageFix"/>
<feColorMatrix in="SourceAlpha" type="matrix" values="0 0 0 0 0 0 0 0 0 0 0 0 0 0 0 0 0 0 127 0" result="hardAlpha"/>
<feOffset dy="4"/>
<feGaussianBlur stdDeviation="2"/>
<feComposite in2="hardAlpha" operator="out"/>
<feColorMatrix type="matrix" values="0 0 0 0 0 0 0 0 0 0 0 0 0 0 0 0 0 0 0.25 0"/>
<feBlend mode="normal" in2="BackgroundImageFix" result="effect1_dropShadow"/>
<feBlend mode="normal" in="SourceGraphic" in2="effect1_dropShadow" result="shape"/>
</filter>
</defs>
</svg>
